<mxfile host="app.diagrams.net" modified="2023-05-19T17:11:28.188Z" agent="Mozilla/5.0 (Windows NT 10.0; Win64; x64) AppleWebKit/537.36 (KHTML, like Gecko) Chrome/113.0.0.0 Safari/537.36" etag="B7Bos5X6zQ3NDsSxQLm7" version="21.1.4" type="device">
  <diagram name="Page-1" id="gwMdnIONhVsbJrzuY9f_">
    <mxGraphModel dx="7436" dy="4024" grid="1" gridSize="10" guides="1" tooltips="1" connect="1" arrows="1" fold="1" page="1" pageScale="1" pageWidth="850" pageHeight="1100" math="0" shadow="0">
      <root>
        <mxCell id="0" />
        <mxCell id="1" parent="0" />
        <mxCell id="G6E1uZcaA4SNPLldOdaM-3" value="USER" style="rounded=0;whiteSpace=wrap;html=1;" vertex="1" parent="1">
          <mxGeometry x="310" y="60" width="100" height="40" as="geometry" />
        </mxCell>
        <mxCell id="G6E1uZcaA4SNPLldOdaM-6" value="" style="endArrow=none;html=1;rounded=0;entryX=0.5;entryY=1;entryDx=0;entryDy=0;" edge="1" parent="1" source="G6E1uZcaA4SNPLldOdaM-4" target="G6E1uZcaA4SNPLldOdaM-3">
          <mxGeometry width="50" height="50" relative="1" as="geometry">
            <mxPoint x="630" y="330" as="sourcePoint" />
            <mxPoint x="680" y="280" as="targetPoint" />
          </mxGeometry>
        </mxCell>
        <mxCell id="G6E1uZcaA4SNPLldOdaM-7" value="Manager" style="rounded=0;whiteSpace=wrap;html=1;" vertex="1" parent="1">
          <mxGeometry x="70" y="290" width="100" height="40" as="geometry" />
        </mxCell>
        <mxCell id="G6E1uZcaA4SNPLldOdaM-8" value="Admin" style="rounded=0;whiteSpace=wrap;html=1;" vertex="1" parent="1">
          <mxGeometry x="-40" y="125" width="100" height="40" as="geometry" />
        </mxCell>
        <mxCell id="G6E1uZcaA4SNPLldOdaM-9" value="Tourist" style="rounded=0;whiteSpace=wrap;html=1;" vertex="1" parent="1">
          <mxGeometry x="540" y="340" width="100" height="40" as="geometry" />
        </mxCell>
        <mxCell id="G6E1uZcaA4SNPLldOdaM-10" value="Service Providers" style="rounded=0;whiteSpace=wrap;html=1;" vertex="1" parent="1">
          <mxGeometry x="805" y="160" width="100" height="40" as="geometry" />
        </mxCell>
        <mxCell id="G6E1uZcaA4SNPLldOdaM-11" value="" style="endArrow=none;html=1;rounded=0;entryX=1;entryY=0.5;entryDx=0;entryDy=0;exitX=0.5;exitY=0;exitDx=0;exitDy=0;strokeWidth=3;" edge="1" parent="1" source="G6E1uZcaA4SNPLldOdaM-4" target="G6E1uZcaA4SNPLldOdaM-8">
          <mxGeometry width="50" height="50" relative="1" as="geometry">
            <mxPoint x="370" y="220" as="sourcePoint" />
            <mxPoint x="370" y="110" as="targetPoint" />
          </mxGeometry>
        </mxCell>
        <mxCell id="G6E1uZcaA4SNPLldOdaM-12" value="" style="endArrow=none;html=1;rounded=0;entryX=1;entryY=0.5;entryDx=0;entryDy=0;exitX=0.036;exitY=0.032;exitDx=0;exitDy=0;exitPerimeter=0;strokeWidth=3;" edge="1" parent="1" source="G6E1uZcaA4SNPLldOdaM-4" target="G6E1uZcaA4SNPLldOdaM-7">
          <mxGeometry width="50" height="50" relative="1" as="geometry">
            <mxPoint x="350" y="250" as="sourcePoint" />
            <mxPoint x="130" y="180" as="targetPoint" />
          </mxGeometry>
        </mxCell>
        <mxCell id="G6E1uZcaA4SNPLldOdaM-13" value="" style="endArrow=none;html=1;rounded=0;exitX=0.5;exitY=1;exitDx=0;exitDy=0;strokeWidth=3;" edge="1" parent="1" source="G6E1uZcaA4SNPLldOdaM-5" target="G6E1uZcaA4SNPLldOdaM-9">
          <mxGeometry width="50" height="50" relative="1" as="geometry">
            <mxPoint x="333" y="278" as="sourcePoint" />
            <mxPoint x="180" y="320" as="targetPoint" />
          </mxGeometry>
        </mxCell>
        <mxCell id="G6E1uZcaA4SNPLldOdaM-14" value="" style="endArrow=none;html=1;rounded=0;exitX=0.632;exitY=0.73;exitDx=0;exitDy=0;exitPerimeter=0;entryX=0;entryY=0.5;entryDx=0;entryDy=0;strokeWidth=3;" edge="1" parent="1" source="G6E1uZcaA4SNPLldOdaM-4" target="G6E1uZcaA4SNPLldOdaM-10">
          <mxGeometry width="50" height="50" relative="1" as="geometry">
            <mxPoint x="370" y="280" as="sourcePoint" />
            <mxPoint x="386" y="360" as="targetPoint" />
          </mxGeometry>
        </mxCell>
        <mxCell id="G6E1uZcaA4SNPLldOdaM-15" value="" style="group" vertex="1" connectable="0" parent="1">
          <mxGeometry x="320" y="210" width="80" height="60" as="geometry" />
        </mxCell>
        <mxCell id="G6E1uZcaA4SNPLldOdaM-4" value="" style="triangle;whiteSpace=wrap;html=1;rotation=-90;" vertex="1" parent="G6E1uZcaA4SNPLldOdaM-15">
          <mxGeometry x="10" y="-10" width="60" height="80" as="geometry" />
        </mxCell>
        <mxCell id="G6E1uZcaA4SNPLldOdaM-5" value="ISA" style="text;html=1;strokeColor=none;fillColor=none;align=center;verticalAlign=middle;whiteSpace=wrap;rounded=0;" vertex="1" parent="G6E1uZcaA4SNPLldOdaM-15">
          <mxGeometry x="10" y="30" width="60" height="30" as="geometry" />
        </mxCell>
        <mxCell id="G6E1uZcaA4SNPLldOdaM-16" value="" style="group" vertex="1" connectable="0" parent="1">
          <mxGeometry x="-70" y="360" width="80" height="60" as="geometry" />
        </mxCell>
        <mxCell id="G6E1uZcaA4SNPLldOdaM-17" value="" style="triangle;whiteSpace=wrap;html=1;rotation=-90;" vertex="1" parent="G6E1uZcaA4SNPLldOdaM-16">
          <mxGeometry x="10" y="-10" width="60" height="80" as="geometry" />
        </mxCell>
        <mxCell id="G6E1uZcaA4SNPLldOdaM-18" value="ISA" style="text;html=1;strokeColor=none;fillColor=none;align=center;verticalAlign=middle;whiteSpace=wrap;rounded=0;" vertex="1" parent="G6E1uZcaA4SNPLldOdaM-16">
          <mxGeometry x="10" y="30" width="60" height="30" as="geometry" />
        </mxCell>
        <mxCell id="G6E1uZcaA4SNPLldOdaM-19" value="Restaurant&amp;nbsp; Manager" style="rounded=0;whiteSpace=wrap;html=1;" vertex="1" parent="1">
          <mxGeometry x="-160" y="685" width="110" height="60" as="geometry" />
        </mxCell>
        <mxCell id="G6E1uZcaA4SNPLldOdaM-20" value="Tour Manager" style="rounded=0;whiteSpace=wrap;html=1;" vertex="1" parent="1">
          <mxGeometry x="-490" y="320" width="110" height="60" as="geometry" />
        </mxCell>
        <mxCell id="G6E1uZcaA4SNPLldOdaM-21" value="Hotel Manager" style="rounded=0;whiteSpace=wrap;html=1;" vertex="1" parent="1">
          <mxGeometry x="-470" y="685" width="110" height="60" as="geometry" />
        </mxCell>
        <mxCell id="G6E1uZcaA4SNPLldOdaM-24" value="Train Booking Manger" style="rounded=0;whiteSpace=wrap;html=1;" vertex="1" parent="1">
          <mxGeometry y="585" width="110" height="60" as="geometry" />
        </mxCell>
        <mxCell id="G6E1uZcaA4SNPLldOdaM-25" value="Special Activity Manager" style="rounded=0;whiteSpace=wrap;html=1;" vertex="1" parent="1">
          <mxGeometry x="170" y="470" width="110" height="60" as="geometry" />
        </mxCell>
        <mxCell id="G6E1uZcaA4SNPLldOdaM-26" value="" style="endArrow=none;html=1;rounded=0;entryX=1;entryY=0.5;entryDx=0;entryDy=0;exitX=0;exitY=1;exitDx=0;exitDy=0;" edge="1" parent="1" source="G6E1uZcaA4SNPLldOdaM-7" target="G6E1uZcaA4SNPLldOdaM-17">
          <mxGeometry width="50" height="50" relative="1" as="geometry">
            <mxPoint x="333" y="278" as="sourcePoint" />
            <mxPoint x="180" y="320" as="targetPoint" />
          </mxGeometry>
        </mxCell>
        <mxCell id="G6E1uZcaA4SNPLldOdaM-27" value="" style="endArrow=none;html=1;rounded=0;entryX=1;entryY=0.25;entryDx=0;entryDy=0;exitX=0.585;exitY=0.314;exitDx=0;exitDy=0;exitPerimeter=0;strokeWidth=3;" edge="1" parent="1" source="G6E1uZcaA4SNPLldOdaM-17" target="G6E1uZcaA4SNPLldOdaM-20">
          <mxGeometry width="50" height="50" relative="1" as="geometry">
            <mxPoint x="80" y="340" as="sourcePoint" />
            <mxPoint x="-30" y="440" as="targetPoint" />
          </mxGeometry>
        </mxCell>
        <mxCell id="G6E1uZcaA4SNPLldOdaM-28" value="" style="endArrow=none;html=1;rounded=0;entryX=1;entryY=0.25;entryDx=0;entryDy=0;exitX=0;exitY=0.5;exitDx=0;exitDy=0;strokeWidth=3;" edge="1" parent="1" source="G6E1uZcaA4SNPLldOdaM-18" target="G6E1uZcaA4SNPLldOdaM-204">
          <mxGeometry width="50" height="50" relative="1" as="geometry">
            <mxPoint x="-45" y="465" as="sourcePoint" />
            <mxPoint x="-305" y="350" as="targetPoint" />
          </mxGeometry>
        </mxCell>
        <mxCell id="G6E1uZcaA4SNPLldOdaM-29" value="" style="endArrow=none;html=1;rounded=0;entryX=0.75;entryY=0;entryDx=0;entryDy=0;exitX=0.75;exitY=1;exitDx=0;exitDy=0;strokeWidth=3;" edge="1" parent="1" source="G6E1uZcaA4SNPLldOdaM-18" target="G6E1uZcaA4SNPLldOdaM-24">
          <mxGeometry width="50" height="50" relative="1" as="geometry">
            <mxPoint x="-60" y="485" as="sourcePoint" />
            <mxPoint x="-280" y="490" as="targetPoint" />
          </mxGeometry>
        </mxCell>
        <mxCell id="G6E1uZcaA4SNPLldOdaM-30" value="" style="endArrow=none;html=1;rounded=0;entryX=1;entryY=0;entryDx=0;entryDy=0;exitX=0.25;exitY=1;exitDx=0;exitDy=0;strokeWidth=3;" edge="1" parent="1" source="G6E1uZcaA4SNPLldOdaM-18" target="G6E1uZcaA4SNPLldOdaM-21">
          <mxGeometry width="50" height="50" relative="1" as="geometry">
            <mxPoint x="-69" y="502" as="sourcePoint" />
            <mxPoint x="-246" y="592" as="targetPoint" />
          </mxGeometry>
        </mxCell>
        <mxCell id="G6E1uZcaA4SNPLldOdaM-31" value="" style="endArrow=none;html=1;rounded=0;entryX=0.75;entryY=0;entryDx=0;entryDy=0;exitX=0.133;exitY=0.954;exitDx=0;exitDy=0;strokeWidth=3;exitPerimeter=0;" edge="1" parent="1" source="G6E1uZcaA4SNPLldOdaM-17" target="G6E1uZcaA4SNPLldOdaM-25">
          <mxGeometry width="50" height="50" relative="1" as="geometry">
            <mxPoint x="-45" y="500" as="sourcePoint" />
            <mxPoint x="-180" y="730" as="targetPoint" />
          </mxGeometry>
        </mxCell>
        <mxCell id="G6E1uZcaA4SNPLldOdaM-32" value="" style="endArrow=none;html=1;rounded=0;entryX=0.25;entryY=0;entryDx=0;entryDy=0;exitX=0.5;exitY=1;exitDx=0;exitDy=0;strokeWidth=3;" edge="1" parent="1" source="G6E1uZcaA4SNPLldOdaM-18" target="G6E1uZcaA4SNPLldOdaM-19">
          <mxGeometry width="50" height="50" relative="1" as="geometry">
            <mxPoint x="-15" y="500" as="sourcePoint" />
            <mxPoint x="89.19000000000005" y="626.2599999999998" as="targetPoint" />
          </mxGeometry>
        </mxCell>
        <mxCell id="G6E1uZcaA4SNPLldOdaM-35" value="Tour Guide" style="rounded=0;whiteSpace=wrap;html=1;" vertex="1" parent="1">
          <mxGeometry x="1750" y="580" width="100" height="40" as="geometry" />
        </mxCell>
        <mxCell id="G6E1uZcaA4SNPLldOdaM-36" value="Name" style="ellipse;whiteSpace=wrap;html=1;" vertex="1" parent="1">
          <mxGeometry x="70" y="-10" width="120" height="50" as="geometry" />
        </mxCell>
        <mxCell id="G6E1uZcaA4SNPLldOdaM-37" value="&lt;u&gt;Email&lt;/u&gt;" style="ellipse;whiteSpace=wrap;html=1;" vertex="1" parent="1">
          <mxGeometry x="130" y="-100" width="120" height="50" as="geometry" />
        </mxCell>
        <mxCell id="G6E1uZcaA4SNPLldOdaM-38" value="Mobile" style="ellipse;whiteSpace=wrap;html=1;" vertex="1" parent="1">
          <mxGeometry x="400" y="-110" width="120" height="50" as="geometry" />
        </mxCell>
        <mxCell id="G6E1uZcaA4SNPLldOdaM-39" value="Username" style="ellipse;whiteSpace=wrap;html=1;" vertex="1" parent="1">
          <mxGeometry x="490" y="-30" width="120" height="50" as="geometry" />
        </mxCell>
        <mxCell id="G6E1uZcaA4SNPLldOdaM-40" value="Password" style="ellipse;whiteSpace=wrap;html=1;" vertex="1" parent="1">
          <mxGeometry x="270" y="-160" width="120" height="50" as="geometry" />
        </mxCell>
        <mxCell id="G6E1uZcaA4SNPLldOdaM-41" value="Photo" style="ellipse;whiteSpace=wrap;html=1;" vertex="1" parent="1">
          <mxGeometry x="240" y="-40" width="120" height="50" as="geometry" />
        </mxCell>
        <mxCell id="G6E1uZcaA4SNPLldOdaM-42" value="Type" style="ellipse;whiteSpace=wrap;html=1;" vertex="1" parent="1">
          <mxGeometry x="500" y="50" width="120" height="50" as="geometry" />
        </mxCell>
        <mxCell id="G6E1uZcaA4SNPLldOdaM-43" value="" style="endArrow=none;html=1;rounded=0;entryX=0.679;entryY=1.025;entryDx=0;entryDy=0;exitX=0;exitY=0.75;exitDx=0;exitDy=0;entryPerimeter=0;" edge="1" parent="1" source="G6E1uZcaA4SNPLldOdaM-3" target="G6E1uZcaA4SNPLldOdaM-36">
          <mxGeometry width="50" height="50" relative="1" as="geometry">
            <mxPoint x="350" y="250" as="sourcePoint" />
            <mxPoint x="130" y="180" as="targetPoint" />
          </mxGeometry>
        </mxCell>
        <mxCell id="G6E1uZcaA4SNPLldOdaM-44" value="" style="endArrow=none;html=1;rounded=0;entryX=0.444;entryY=1.044;entryDx=0;entryDy=0;exitX=0;exitY=0.5;exitDx=0;exitDy=0;entryPerimeter=0;" edge="1" parent="1" source="G6E1uZcaA4SNPLldOdaM-3" target="G6E1uZcaA4SNPLldOdaM-37">
          <mxGeometry width="50" height="50" relative="1" as="geometry">
            <mxPoint x="320" y="100" as="sourcePoint" />
            <mxPoint x="161" y="51" as="targetPoint" />
          </mxGeometry>
        </mxCell>
        <mxCell id="G6E1uZcaA4SNPLldOdaM-45" value="" style="endArrow=none;html=1;rounded=0;entryX=0.595;entryY=1.062;entryDx=0;entryDy=0;exitX=0.196;exitY=-0.014;exitDx=0;exitDy=0;entryPerimeter=0;exitPerimeter=0;" edge="1" parent="1" source="G6E1uZcaA4SNPLldOdaM-3" target="G6E1uZcaA4SNPLldOdaM-41">
          <mxGeometry width="50" height="50" relative="1" as="geometry">
            <mxPoint x="320" y="90" as="sourcePoint" />
            <mxPoint x="193" y="-38" as="targetPoint" />
          </mxGeometry>
        </mxCell>
        <mxCell id="G6E1uZcaA4SNPLldOdaM-46" value="" style="endArrow=none;html=1;rounded=0;entryX=0.739;entryY=1.025;entryDx=0;entryDy=0;exitX=0.75;exitY=0;exitDx=0;exitDy=0;entryPerimeter=0;" edge="1" parent="1" source="G6E1uZcaA4SNPLldOdaM-3" target="G6E1uZcaA4SNPLldOdaM-40">
          <mxGeometry width="50" height="50" relative="1" as="geometry">
            <mxPoint x="340" y="69" as="sourcePoint" />
            <mxPoint x="321" y="23" as="targetPoint" />
          </mxGeometry>
        </mxCell>
        <mxCell id="G6E1uZcaA4SNPLldOdaM-47" value="" style="endArrow=none;html=1;rounded=0;entryX=0.323;entryY=0.971;entryDx=0;entryDy=0;exitX=0.896;exitY=0.009;exitDx=0;exitDy=0;entryPerimeter=0;exitPerimeter=0;" edge="1" parent="1" source="G6E1uZcaA4SNPLldOdaM-3" target="G6E1uZcaA4SNPLldOdaM-38">
          <mxGeometry width="50" height="50" relative="1" as="geometry">
            <mxPoint x="395" y="70" as="sourcePoint" />
            <mxPoint x="369" y="-99" as="targetPoint" />
          </mxGeometry>
        </mxCell>
        <mxCell id="G6E1uZcaA4SNPLldOdaM-48" value="" style="endArrow=none;html=1;rounded=0;entryX=0;entryY=0.5;entryDx=0;entryDy=0;exitX=1;exitY=0;exitDx=0;exitDy=0;" edge="1" parent="1" source="G6E1uZcaA4SNPLldOdaM-3" target="G6E1uZcaA4SNPLldOdaM-39">
          <mxGeometry width="50" height="50" relative="1" as="geometry">
            <mxPoint x="410" y="70" as="sourcePoint" />
            <mxPoint x="449" y="-51" as="targetPoint" />
          </mxGeometry>
        </mxCell>
        <mxCell id="G6E1uZcaA4SNPLldOdaM-49" value="" style="endArrow=none;html=1;rounded=0;entryX=0;entryY=0.5;entryDx=0;entryDy=0;exitX=1;exitY=0.25;exitDx=0;exitDy=0;" edge="1" parent="1" source="G6E1uZcaA4SNPLldOdaM-3" target="G6E1uZcaA4SNPLldOdaM-42">
          <mxGeometry width="50" height="50" relative="1" as="geometry">
            <mxPoint x="420" y="70" as="sourcePoint" />
            <mxPoint x="500" y="5" as="targetPoint" />
          </mxGeometry>
        </mxCell>
        <mxCell id="G6E1uZcaA4SNPLldOdaM-50" value="&lt;u&gt;UserID&lt;/u&gt;" style="ellipse;whiteSpace=wrap;html=1;" vertex="1" parent="1">
          <mxGeometry x="440" y="120" width="120" height="50" as="geometry" />
        </mxCell>
        <mxCell id="G6E1uZcaA4SNPLldOdaM-51" value="" style="endArrow=none;html=1;rounded=0;entryX=0;entryY=0;entryDx=0;entryDy=0;exitX=1;exitY=0.75;exitDx=0;exitDy=0;" edge="1" parent="1" source="G6E1uZcaA4SNPLldOdaM-3" target="G6E1uZcaA4SNPLldOdaM-50">
          <mxGeometry width="50" height="50" relative="1" as="geometry">
            <mxPoint x="420" y="80" as="sourcePoint" />
            <mxPoint x="510" y="85" as="targetPoint" />
          </mxGeometry>
        </mxCell>
        <mxCell id="G6E1uZcaA4SNPLldOdaM-54" value="" style="group" vertex="1" connectable="0" parent="1">
          <mxGeometry x="1090" y="170" width="80" height="60" as="geometry" />
        </mxCell>
        <mxCell id="G6E1uZcaA4SNPLldOdaM-55" value="" style="triangle;whiteSpace=wrap;html=1;rotation=-90;" vertex="1" parent="G6E1uZcaA4SNPLldOdaM-54">
          <mxGeometry x="10" y="-10" width="60" height="80" as="geometry" />
        </mxCell>
        <mxCell id="G6E1uZcaA4SNPLldOdaM-56" value="ISA" style="text;html=1;strokeColor=none;fillColor=none;align=center;verticalAlign=middle;whiteSpace=wrap;rounded=0;" vertex="1" parent="G6E1uZcaA4SNPLldOdaM-54">
          <mxGeometry x="10" y="30" width="60" height="30" as="geometry" />
        </mxCell>
        <mxCell id="G6E1uZcaA4SNPLldOdaM-58" value="send" style="rhombus;whiteSpace=wrap;html=1;" vertex="1" parent="1">
          <mxGeometry x="-380" y="1100" width="110" height="75" as="geometry" />
        </mxCell>
        <mxCell id="G6E1uZcaA4SNPLldOdaM-59" value="Reservation" style="rounded=0;whiteSpace=wrap;html=1;" vertex="1" parent="1">
          <mxGeometry x="-670" y="1330" width="110" height="60" as="geometry" />
        </mxCell>
        <mxCell id="G6E1uZcaA4SNPLldOdaM-60" value="" style="endArrow=none;html=1;rounded=0;entryX=0.5;entryY=1;entryDx=0;entryDy=0;exitX=1;exitY=0.5;exitDx=0;exitDy=0;" edge="1" parent="1" source="G6E1uZcaA4SNPLldOdaM-58" target="G6E1uZcaA4SNPLldOdaM-9">
          <mxGeometry width="50" height="50" relative="1" as="geometry">
            <mxPoint y="485" as="sourcePoint" />
            <mxPoint x="200" y="545" as="targetPoint" />
            <Array as="points">
              <mxPoint x="260" y="740" />
            </Array>
          </mxGeometry>
        </mxCell>
        <mxCell id="G6E1uZcaA4SNPLldOdaM-61" value="" style="endArrow=none;html=1;rounded=0;exitX=0.5;exitY=0;exitDx=0;exitDy=0;entryX=0;entryY=0.5;entryDx=0;entryDy=0;" edge="1" parent="1" source="G6E1uZcaA4SNPLldOdaM-59" target="G6E1uZcaA4SNPLldOdaM-58">
          <mxGeometry width="50" height="50" relative="1" as="geometry">
            <mxPoint x="590" y="530" as="sourcePoint" />
            <mxPoint x="580" y="590" as="targetPoint" />
          </mxGeometry>
        </mxCell>
        <mxCell id="G6E1uZcaA4SNPLldOdaM-65" value="Book" style="rhombus;whiteSpace=wrap;html=1;" vertex="1" parent="1">
          <mxGeometry x="860" y="610" width="110" height="75" as="geometry" />
        </mxCell>
        <mxCell id="G6E1uZcaA4SNPLldOdaM-66" value="Hotels" style="rounded=0;whiteSpace=wrap;html=1;" vertex="1" parent="1">
          <mxGeometry x="520" y="1175" width="110" height="60" as="geometry" />
        </mxCell>
        <mxCell id="G6E1uZcaA4SNPLldOdaM-67" value="Book" style="rhombus;whiteSpace=wrap;html=1;" vertex="1" parent="1">
          <mxGeometry x="570" y="565" width="110" height="75" as="geometry" />
        </mxCell>
        <mxCell id="G6E1uZcaA4SNPLldOdaM-68" value="Vehicles" style="rounded=0;whiteSpace=wrap;html=1;" vertex="1" parent="1">
          <mxGeometry x="240" y="1380" width="110" height="60" as="geometry" />
        </mxCell>
        <mxCell id="G6E1uZcaA4SNPLldOdaM-69" value="" style="endArrow=none;html=1;rounded=0;entryX=0.687;entryY=1.009;entryDx=0;entryDy=0;exitX=0.5;exitY=0;exitDx=0;exitDy=0;entryPerimeter=0;" edge="1" parent="1" source="G6E1uZcaA4SNPLldOdaM-67" target="G6E1uZcaA4SNPLldOdaM-9">
          <mxGeometry width="50" height="50" relative="1" as="geometry">
            <mxPoint x="590" y="530" as="sourcePoint" />
            <mxPoint x="590" y="450" as="targetPoint" />
          </mxGeometry>
        </mxCell>
        <mxCell id="G6E1uZcaA4SNPLldOdaM-70" value="" style="endArrow=none;html=1;rounded=0;exitX=0.5;exitY=0;exitDx=0;exitDy=0;entryX=0.5;entryY=1;entryDx=0;entryDy=0;" edge="1" parent="1" source="G6E1uZcaA4SNPLldOdaM-68" target="G6E1uZcaA4SNPLldOdaM-67">
          <mxGeometry width="50" height="50" relative="1" as="geometry">
            <mxPoint x="735" y="620" as="sourcePoint" />
            <mxPoint x="730" y="680" as="targetPoint" />
            <Array as="points">
              <mxPoint x="180" y="1180" />
            </Array>
          </mxGeometry>
        </mxCell>
        <mxCell id="G6E1uZcaA4SNPLldOdaM-71" value="Book" style="rhombus;whiteSpace=wrap;html=1;" vertex="1" parent="1">
          <mxGeometry x="770" y="650" width="110" height="75" as="geometry" />
        </mxCell>
        <mxCell id="G6E1uZcaA4SNPLldOdaM-72" value="Restaurents" style="rounded=0;whiteSpace=wrap;html=1;" vertex="1" parent="1">
          <mxGeometry x="1150" y="1300" width="110" height="60" as="geometry" />
        </mxCell>
        <mxCell id="G6E1uZcaA4SNPLldOdaM-73" value="Trains" style="rounded=0;whiteSpace=wrap;html=1;" vertex="1" parent="1">
          <mxGeometry x="1130" y="830" width="110" height="60" as="geometry" />
        </mxCell>
        <mxCell id="G6E1uZcaA4SNPLldOdaM-74" value="Special Activites" style="rounded=0;whiteSpace=wrap;html=1;" vertex="1" parent="1">
          <mxGeometry x="1170" y="520" width="110" height="60" as="geometry" />
        </mxCell>
        <mxCell id="G6E1uZcaA4SNPLldOdaM-75" value="Book" style="rhombus;whiteSpace=wrap;html=1;" vertex="1" parent="1">
          <mxGeometry x="930" y="520" width="110" height="75" as="geometry" />
        </mxCell>
        <mxCell id="G6E1uZcaA4SNPLldOdaM-76" value="Book" style="rhombus;whiteSpace=wrap;html=1;" vertex="1" parent="1">
          <mxGeometry x="660" y="610" width="110" height="75" as="geometry" />
        </mxCell>
        <mxCell id="G6E1uZcaA4SNPLldOdaM-77" value="" style="endArrow=none;html=1;rounded=0;entryX=1;entryY=1;entryDx=0;entryDy=0;exitX=0.5;exitY=0;exitDx=0;exitDy=0;" edge="1" parent="1" source="G6E1uZcaA4SNPLldOdaM-76" target="G6E1uZcaA4SNPLldOdaM-9">
          <mxGeometry width="50" height="50" relative="1" as="geometry">
            <mxPoint x="665" y="565" as="sourcePoint" />
            <mxPoint x="609" y="450" as="targetPoint" />
          </mxGeometry>
        </mxCell>
        <mxCell id="G6E1uZcaA4SNPLldOdaM-78" value="" style="endArrow=none;html=1;rounded=0;entryX=1;entryY=0.5;entryDx=0;entryDy=0;exitX=0.5;exitY=0;exitDx=0;exitDy=0;" edge="1" parent="1" source="G6E1uZcaA4SNPLldOdaM-71" target="G6E1uZcaA4SNPLldOdaM-9">
          <mxGeometry width="50" height="50" relative="1" as="geometry">
            <mxPoint x="815" y="538" as="sourcePoint" />
            <mxPoint x="640" y="450" as="targetPoint" />
          </mxGeometry>
        </mxCell>
        <mxCell id="G6E1uZcaA4SNPLldOdaM-79" value="" style="endArrow=none;html=1;rounded=0;entryX=1;entryY=0.25;entryDx=0;entryDy=0;exitX=0.5;exitY=0;exitDx=0;exitDy=0;" edge="1" parent="1" source="G6E1uZcaA4SNPLldOdaM-65" target="G6E1uZcaA4SNPLldOdaM-9">
          <mxGeometry width="50" height="50" relative="1" as="geometry">
            <mxPoint x="830" y="583" as="sourcePoint" />
            <mxPoint x="640" y="430" as="targetPoint" />
          </mxGeometry>
        </mxCell>
        <mxCell id="G6E1uZcaA4SNPLldOdaM-80" value="" style="endArrow=none;html=1;rounded=0;entryX=1;entryY=0;entryDx=0;entryDy=0;exitX=0;exitY=0.5;exitDx=0;exitDy=0;" edge="1" parent="1" source="G6E1uZcaA4SNPLldOdaM-75" target="G6E1uZcaA4SNPLldOdaM-9">
          <mxGeometry width="50" height="50" relative="1" as="geometry">
            <mxPoint x="830" y="538" as="sourcePoint" />
            <mxPoint x="640" y="420" as="targetPoint" />
          </mxGeometry>
        </mxCell>
        <mxCell id="G6E1uZcaA4SNPLldOdaM-81" value="" style="endArrow=none;html=1;rounded=0;entryX=0.5;entryY=0;entryDx=0;entryDy=0;exitX=0.5;exitY=1;exitDx=0;exitDy=0;" edge="1" parent="1" source="G6E1uZcaA4SNPLldOdaM-76" target="G6E1uZcaA4SNPLldOdaM-66">
          <mxGeometry width="50" height="50" relative="1" as="geometry">
            <mxPoint x="725" y="620" as="sourcePoint" />
            <mxPoint x="640" y="450" as="targetPoint" />
          </mxGeometry>
        </mxCell>
        <mxCell id="G6E1uZcaA4SNPLldOdaM-82" value="" style="endArrow=none;html=1;rounded=0;entryX=0.25;entryY=0;entryDx=0;entryDy=0;exitX=0.5;exitY=1;exitDx=0;exitDy=0;" edge="1" parent="1" source="G6E1uZcaA4SNPLldOdaM-71" target="G6E1uZcaA4SNPLldOdaM-72">
          <mxGeometry width="50" height="50" relative="1" as="geometry">
            <mxPoint x="725" y="695" as="sourcePoint" />
            <mxPoint x="945" y="1100" as="targetPoint" />
          </mxGeometry>
        </mxCell>
        <mxCell id="G6E1uZcaA4SNPLldOdaM-84" value="" style="endArrow=none;html=1;rounded=0;entryX=0.071;entryY=-0.024;entryDx=0;entryDy=0;exitX=0.5;exitY=1;exitDx=0;exitDy=0;entryPerimeter=0;" edge="1" parent="1" source="G6E1uZcaA4SNPLldOdaM-65" target="G6E1uZcaA4SNPLldOdaM-73">
          <mxGeometry width="50" height="50" relative="1" as="geometry">
            <mxPoint x="835" y="735" as="sourcePoint" />
            <mxPoint x="1140" y="1130" as="targetPoint" />
          </mxGeometry>
        </mxCell>
        <mxCell id="G6E1uZcaA4SNPLldOdaM-85" value="" style="endArrow=none;html=1;rounded=0;entryX=0;entryY=0.5;entryDx=0;entryDy=0;exitX=1;exitY=0.5;exitDx=0;exitDy=0;" edge="1" parent="1" source="G6E1uZcaA4SNPLldOdaM-75" target="G6E1uZcaA4SNPLldOdaM-74">
          <mxGeometry width="50" height="50" relative="1" as="geometry">
            <mxPoint x="925" y="695" as="sourcePoint" />
            <mxPoint x="1400" y="1020" as="targetPoint" />
          </mxGeometry>
        </mxCell>
        <mxCell id="G6E1uZcaA4SNPLldOdaM-86" value="CurrentUser" style="ellipse;whiteSpace=wrap;html=1;" vertex="1" parent="1">
          <mxGeometry x="-890" y="1280" width="120" height="50" as="geometry" />
        </mxCell>
        <mxCell id="G6E1uZcaA4SNPLldOdaM-87" value="&lt;u&gt;id&lt;/u&gt;" style="ellipse;whiteSpace=wrap;html=1;" vertex="1" parent="1">
          <mxGeometry x="-810" y="1450" width="120" height="50" as="geometry" />
        </mxCell>
        <mxCell id="G6E1uZcaA4SNPLldOdaM-88" value="FirstName" style="ellipse;whiteSpace=wrap;html=1;" vertex="1" parent="1">
          <mxGeometry x="-690" y="1195" width="120" height="50" as="geometry" />
        </mxCell>
        <mxCell id="G6E1uZcaA4SNPLldOdaM-89" value="LastName" style="ellipse;whiteSpace=wrap;html=1;" vertex="1" parent="1">
          <mxGeometry x="-940" y="1370" width="120" height="50" as="geometry" />
        </mxCell>
        <mxCell id="G6E1uZcaA4SNPLldOdaM-90" value="Date" style="ellipse;whiteSpace=wrap;html=1;" vertex="1" parent="1">
          <mxGeometry x="-570" y="1440" width="120" height="50" as="geometry" />
        </mxCell>
        <mxCell id="G6E1uZcaA4SNPLldOdaM-91" value="Phone" style="ellipse;whiteSpace=wrap;html=1;" vertex="1" parent="1">
          <mxGeometry x="-460" y="1370" width="120" height="50" as="geometry" />
        </mxCell>
        <mxCell id="G6E1uZcaA4SNPLldOdaM-92" value="Guest_Count" style="ellipse;whiteSpace=wrap;html=1;" vertex="1" parent="1">
          <mxGeometry x="-485" y="1270" width="120" height="50" as="geometry" />
        </mxCell>
        <mxCell id="G6E1uZcaA4SNPLldOdaM-93" value="Approve/ Cancel" style="rhombus;whiteSpace=wrap;html=1;" vertex="1" parent="1">
          <mxGeometry x="-1050" y="860" width="120" height="90" as="geometry" />
        </mxCell>
        <mxCell id="G6E1uZcaA4SNPLldOdaM-94" value="" style="endArrow=none;html=1;rounded=0;entryX=0;entryY=0;entryDx=0;entryDy=0;exitX=0.5;exitY=1;exitDx=0;exitDy=0;" edge="1" parent="1" source="G6E1uZcaA4SNPLldOdaM-93" target="G6E1uZcaA4SNPLldOdaM-59">
          <mxGeometry width="50" height="50" relative="1" as="geometry">
            <mxPoint x="-45" y="500" as="sourcePoint" />
            <mxPoint x="-160" y="730" as="targetPoint" />
          </mxGeometry>
        </mxCell>
        <mxCell id="G6E1uZcaA4SNPLldOdaM-95" value="" style="endArrow=none;html=1;rounded=0;entryX=0.5;entryY=0;entryDx=0;entryDy=0;exitX=0;exitY=0.5;exitDx=0;exitDy=0;" edge="1" parent="1" source="G6E1uZcaA4SNPLldOdaM-20" target="G6E1uZcaA4SNPLldOdaM-93">
          <mxGeometry width="50" height="50" relative="1" as="geometry">
            <mxPoint x="-600" y="1100" as="sourcePoint" />
            <mxPoint x="-230" y="1310" as="targetPoint" />
          </mxGeometry>
        </mxCell>
        <mxCell id="G6E1uZcaA4SNPLldOdaM-96" value="" style="endArrow=none;html=1;rounded=0;entryX=0.25;entryY=0;entryDx=0;entryDy=0;exitX=0.5;exitY=1;exitDx=0;exitDy=0;" edge="1" parent="1" source="G6E1uZcaA4SNPLldOdaM-88" target="G6E1uZcaA4SNPLldOdaM-59">
          <mxGeometry width="50" height="50" relative="1" as="geometry">
            <mxPoint x="-600" y="1100" as="sourcePoint" />
            <mxPoint x="-230" y="1310" as="targetPoint" />
          </mxGeometry>
        </mxCell>
        <mxCell id="G6E1uZcaA4SNPLldOdaM-97" value="" style="endArrow=none;html=1;rounded=0;entryX=0;entryY=0.5;entryDx=0;entryDy=0;exitX=1;exitY=0.5;exitDx=0;exitDy=0;" edge="1" parent="1" source="G6E1uZcaA4SNPLldOdaM-86" target="G6E1uZcaA4SNPLldOdaM-59">
          <mxGeometry width="50" height="50" relative="1" as="geometry">
            <mxPoint x="-230" y="1200" as="sourcePoint" />
            <mxPoint x="-219" y="1282" as="targetPoint" />
          </mxGeometry>
        </mxCell>
        <mxCell id="G6E1uZcaA4SNPLldOdaM-98" value="" style="endArrow=none;html=1;rounded=0;entryX=0;entryY=0.75;entryDx=0;entryDy=0;exitX=1;exitY=0;exitDx=0;exitDy=0;" edge="1" parent="1" source="G6E1uZcaA4SNPLldOdaM-89" target="G6E1uZcaA4SNPLldOdaM-59">
          <mxGeometry width="50" height="50" relative="1" as="geometry">
            <mxPoint x="-320" y="1310" as="sourcePoint" />
            <mxPoint x="-230" y="1310" as="targetPoint" />
          </mxGeometry>
        </mxCell>
        <mxCell id="G6E1uZcaA4SNPLldOdaM-99" value="" style="endArrow=none;html=1;rounded=0;entryX=0.25;entryY=1;entryDx=0;entryDy=0;exitX=0.394;exitY=-0.02;exitDx=0;exitDy=0;exitPerimeter=0;" edge="1" parent="1" source="G6E1uZcaA4SNPLldOdaM-87" target="G6E1uZcaA4SNPLldOdaM-59">
          <mxGeometry width="50" height="50" relative="1" as="geometry">
            <mxPoint x="-292" y="1388" as="sourcePoint" />
            <mxPoint x="-230" y="1325" as="targetPoint" />
          </mxGeometry>
        </mxCell>
        <mxCell id="G6E1uZcaA4SNPLldOdaM-100" value="" style="endArrow=none;html=1;rounded=0;entryX=0.75;entryY=1;entryDx=0;entryDy=0;exitX=0;exitY=0.5;exitDx=0;exitDy=0;" edge="1" parent="1" source="G6E1uZcaA4SNPLldOdaM-90" target="G6E1uZcaA4SNPLldOdaM-59">
          <mxGeometry width="50" height="50" relative="1" as="geometry">
            <mxPoint x="-203" y="1419" as="sourcePoint" />
            <mxPoint x="-202" y="1340" as="targetPoint" />
          </mxGeometry>
        </mxCell>
        <mxCell id="G6E1uZcaA4SNPLldOdaM-101" value="" style="endArrow=none;html=1;rounded=0;entryX=1;entryY=0.75;entryDx=0;entryDy=0;exitX=0;exitY=0.5;exitDx=0;exitDy=0;" edge="1" parent="1" source="G6E1uZcaA4SNPLldOdaM-91" target="G6E1uZcaA4SNPLldOdaM-59">
          <mxGeometry width="50" height="50" relative="1" as="geometry">
            <mxPoint x="-90" y="1425" as="sourcePoint" />
            <mxPoint x="-147" y="1340" as="targetPoint" />
          </mxGeometry>
        </mxCell>
        <mxCell id="G6E1uZcaA4SNPLldOdaM-102" value="" style="endArrow=none;html=1;rounded=0;entryX=1;entryY=0.25;entryDx=0;entryDy=0;exitX=0.056;exitY=0.753;exitDx=0;exitDy=0;exitPerimeter=0;" edge="1" parent="1" source="G6E1uZcaA4SNPLldOdaM-92" target="G6E1uZcaA4SNPLldOdaM-59">
          <mxGeometry width="50" height="50" relative="1" as="geometry">
            <mxPoint y="1345" as="sourcePoint" />
            <mxPoint x="-120" y="1325" as="targetPoint" />
          </mxGeometry>
        </mxCell>
        <mxCell id="G6E1uZcaA4SNPLldOdaM-110" value="Finance Manager" style="rounded=0;whiteSpace=wrap;html=1;" vertex="1" parent="1">
          <mxGeometry x="-365" y="125" width="110" height="60" as="geometry" />
        </mxCell>
        <mxCell id="G6E1uZcaA4SNPLldOdaM-111" value="" style="endArrow=none;html=1;rounded=0;entryX=0.5;entryY=1;entryDx=0;entryDy=0;exitX=0.744;exitY=0.375;exitDx=0;exitDy=0;exitPerimeter=0;strokeWidth=3;" edge="1" parent="1" source="G6E1uZcaA4SNPLldOdaM-17" target="G6E1uZcaA4SNPLldOdaM-110">
          <mxGeometry width="50" height="50" relative="1" as="geometry">
            <mxPoint x="8" y="497" as="sourcePoint" />
            <mxPoint x="99" y="636" as="targetPoint" />
          </mxGeometry>
        </mxCell>
        <mxCell id="G6E1uZcaA4SNPLldOdaM-112" value="request" style="rhombus;whiteSpace=wrap;html=1;" vertex="1" parent="1">
          <mxGeometry x="-160" y="1190" width="110" height="75" as="geometry" />
        </mxCell>
        <mxCell id="G6E1uZcaA4SNPLldOdaM-113" value="" style="endArrow=none;html=1;rounded=0;entryX=0.617;entryY=1.046;entryDx=0;entryDy=0;exitX=1;exitY=0;exitDx=0;exitDy=0;entryPerimeter=0;" edge="1" parent="1" source="G6E1uZcaA4SNPLldOdaM-112" target="G6E1uZcaA4SNPLldOdaM-9">
          <mxGeometry width="50" height="50" relative="1" as="geometry">
            <mxPoint x="490" y="500" as="sourcePoint" />
            <mxPoint x="600" y="390" as="targetPoint" />
            <Array as="points">
              <mxPoint x="530" y="660" />
            </Array>
          </mxGeometry>
        </mxCell>
        <mxCell id="G6E1uZcaA4SNPLldOdaM-114" value="Custom_Tour" style="rounded=0;whiteSpace=wrap;html=1;" vertex="1" parent="1">
          <mxGeometry x="-190" y="1320" width="110" height="60" as="geometry" />
        </mxCell>
        <mxCell id="G6E1uZcaA4SNPLldOdaM-116" value="Reports" style="rounded=0;whiteSpace=wrap;html=1;" vertex="1" parent="1">
          <mxGeometry x="-320" y="-170" width="100" height="40" as="geometry" />
        </mxCell>
        <mxCell id="G6E1uZcaA4SNPLldOdaM-117" value="Generate&amp;nbsp;" style="rhombus;whiteSpace=wrap;html=1;" vertex="1" parent="1">
          <mxGeometry x="-230" y="-42.5" width="110" height="75" as="geometry" />
        </mxCell>
        <mxCell id="G6E1uZcaA4SNPLldOdaM-118" value="" style="endArrow=none;html=1;rounded=0;entryX=0.5;entryY=1;entryDx=0;entryDy=0;exitX=0;exitY=0.25;exitDx=0;exitDy=0;" edge="1" parent="1" source="G6E1uZcaA4SNPLldOdaM-8" target="G6E1uZcaA4SNPLldOdaM-117">
          <mxGeometry width="50" height="50" relative="1" as="geometry">
            <mxPoint x="350" y="250" as="sourcePoint" />
            <mxPoint x="70" y="155" as="targetPoint" />
          </mxGeometry>
        </mxCell>
        <mxCell id="G6E1uZcaA4SNPLldOdaM-119" value="" style="endArrow=none;html=1;rounded=0;entryX=0.5;entryY=1;entryDx=0;entryDy=0;exitX=0.5;exitY=0;exitDx=0;exitDy=0;" edge="1" parent="1" source="G6E1uZcaA4SNPLldOdaM-117" target="G6E1uZcaA4SNPLldOdaM-116">
          <mxGeometry width="50" height="50" relative="1" as="geometry">
            <mxPoint x="-30" y="145" as="sourcePoint" />
            <mxPoint x="-165" y="43" as="targetPoint" />
          </mxGeometry>
        </mxCell>
        <mxCell id="G6E1uZcaA4SNPLldOdaM-120" value="&lt;u&gt;id&lt;/u&gt;" style="ellipse;whiteSpace=wrap;html=1;" vertex="1" parent="1">
          <mxGeometry x="-520" y="-260" width="120" height="50" as="geometry" />
        </mxCell>
        <mxCell id="G6E1uZcaA4SNPLldOdaM-121" value="Name" style="ellipse;whiteSpace=wrap;html=1;" vertex="1" parent="1">
          <mxGeometry x="-375" y="-290" width="120" height="50" as="geometry" />
        </mxCell>
        <mxCell id="G6E1uZcaA4SNPLldOdaM-122" value="" style="endArrow=none;html=1;rounded=0;entryX=0.736;entryY=0.94;entryDx=0;entryDy=0;exitX=0;exitY=0.25;exitDx=0;exitDy=0;entryPerimeter=0;" edge="1" parent="1" source="G6E1uZcaA4SNPLldOdaM-116" target="G6E1uZcaA4SNPLldOdaM-120">
          <mxGeometry width="50" height="50" relative="1" as="geometry">
            <mxPoint x="-165" y="-32" as="sourcePoint" />
            <mxPoint x="-260" y="-120" as="targetPoint" />
          </mxGeometry>
        </mxCell>
        <mxCell id="G6E1uZcaA4SNPLldOdaM-123" value="" style="endArrow=none;html=1;rounded=0;entryX=0;entryY=1;entryDx=0;entryDy=0;" edge="1" parent="1" source="G6E1uZcaA4SNPLldOdaM-116" target="G6E1uZcaA4SNPLldOdaM-121">
          <mxGeometry width="50" height="50" relative="1" as="geometry">
            <mxPoint x="-310" y="-150" as="sourcePoint" />
            <mxPoint x="-422" y="-203" as="targetPoint" />
          </mxGeometry>
        </mxCell>
        <mxCell id="G6E1uZcaA4SNPLldOdaM-124" value="Date" style="ellipse;whiteSpace=wrap;html=1;" vertex="1" parent="1">
          <mxGeometry x="-230" y="-280" width="120" height="50" as="geometry" />
        </mxCell>
        <mxCell id="G6E1uZcaA4SNPLldOdaM-125" value="" style="endArrow=none;html=1;rounded=0;entryX=0;entryY=1;entryDx=0;entryDy=0;exitX=0.75;exitY=0;exitDx=0;exitDy=0;" edge="1" parent="1" source="G6E1uZcaA4SNPLldOdaM-116" target="G6E1uZcaA4SNPLldOdaM-124">
          <mxGeometry width="50" height="50" relative="1" as="geometry">
            <mxPoint x="-278" y="-160" as="sourcePoint" />
            <mxPoint x="-347" y="-237" as="targetPoint" />
          </mxGeometry>
        </mxCell>
        <mxCell id="G6E1uZcaA4SNPLldOdaM-126" value="Summary" style="ellipse;whiteSpace=wrap;html=1;" vertex="1" parent="1">
          <mxGeometry x="-130" y="-220" width="120" height="50" as="geometry" />
        </mxCell>
        <mxCell id="G6E1uZcaA4SNPLldOdaM-127" value="" style="endArrow=none;html=1;rounded=0;entryX=0;entryY=0.5;entryDx=0;entryDy=0;exitX=1;exitY=0.5;exitDx=0;exitDy=0;" edge="1" parent="1" source="G6E1uZcaA4SNPLldOdaM-116" target="G6E1uZcaA4SNPLldOdaM-126">
          <mxGeometry width="50" height="50" relative="1" as="geometry">
            <mxPoint x="-235" y="-160" as="sourcePoint" />
            <mxPoint x="-202" y="-227" as="targetPoint" />
          </mxGeometry>
        </mxCell>
        <mxCell id="G6E1uZcaA4SNPLldOdaM-128" value="Current_User" style="ellipse;whiteSpace=wrap;html=1;" vertex="1" parent="1">
          <mxGeometry x="-350" y="1295" width="120" height="50" as="geometry" />
        </mxCell>
        <mxCell id="G6E1uZcaA4SNPLldOdaM-129" value="Where_from" style="ellipse;whiteSpace=wrap;html=1;" vertex="1" parent="1">
          <mxGeometry x="-290" y="1410" width="120" height="50" as="geometry" />
        </mxCell>
        <mxCell id="G6E1uZcaA4SNPLldOdaM-130" value="Where_to" style="ellipse;whiteSpace=wrap;html=1;" vertex="1" parent="1">
          <mxGeometry x="-200" y="1500" width="120" height="50" as="geometry" />
        </mxCell>
        <mxCell id="G6E1uZcaA4SNPLldOdaM-131" value="days" style="ellipse;whiteSpace=wrap;html=1;" vertex="1" parent="1">
          <mxGeometry x="-70" y="1510" width="120" height="50" as="geometry" />
        </mxCell>
        <mxCell id="G6E1uZcaA4SNPLldOdaM-132" value="" style="endArrow=none;html=1;rounded=0;entryX=1;entryY=0;entryDx=0;entryDy=0;exitX=0;exitY=0.5;exitDx=0;exitDy=0;" edge="1" parent="1" source="G6E1uZcaA4SNPLldOdaM-114" target="G6E1uZcaA4SNPLldOdaM-128">
          <mxGeometry width="50" height="50" relative="1" as="geometry">
            <mxPoint x="423" y="834" as="sourcePoint" />
            <mxPoint x="612" y="392" as="targetPoint" />
          </mxGeometry>
        </mxCell>
        <mxCell id="G6E1uZcaA4SNPLldOdaM-133" value="" style="endArrow=none;html=1;rounded=0;entryX=0.778;entryY=-0.06;entryDx=0;entryDy=0;exitX=0;exitY=1;exitDx=0;exitDy=0;entryPerimeter=0;" edge="1" parent="1" source="G6E1uZcaA4SNPLldOdaM-114" target="G6E1uZcaA4SNPLldOdaM-129">
          <mxGeometry width="50" height="50" relative="1" as="geometry">
            <mxPoint x="60" y="1090" as="sourcePoint" />
            <mxPoint x="-88" y="1157" as="targetPoint" />
          </mxGeometry>
        </mxCell>
        <mxCell id="G6E1uZcaA4SNPLldOdaM-134" value="" style="endArrow=none;html=1;rounded=0;entryX=0.417;entryY=0.007;entryDx=0;entryDy=0;entryPerimeter=0;exitX=0.373;exitY=0.995;exitDx=0;exitDy=0;exitPerimeter=0;" edge="1" parent="1" source="G6E1uZcaA4SNPLldOdaM-114" target="G6E1uZcaA4SNPLldOdaM-130">
          <mxGeometry width="50" height="50" relative="1" as="geometry">
            <mxPoint x="90" y="1100" as="sourcePoint" />
            <mxPoint x="-27" y="1237" as="targetPoint" />
          </mxGeometry>
        </mxCell>
        <mxCell id="G6E1uZcaA4SNPLldOdaM-135" value="" style="endArrow=none;html=1;rounded=0;entryX=0.417;entryY=-0.027;entryDx=0;entryDy=0;exitX=0.75;exitY=1;exitDx=0;exitDy=0;entryPerimeter=0;" edge="1" parent="1" source="G6E1uZcaA4SNPLldOdaM-114" target="G6E1uZcaA4SNPLldOdaM-131">
          <mxGeometry width="50" height="50" relative="1" as="geometry">
            <mxPoint x="100" y="1125" as="sourcePoint" />
            <mxPoint x="80" y="1280" as="targetPoint" />
          </mxGeometry>
        </mxCell>
        <mxCell id="G6E1uZcaA4SNPLldOdaM-136" value="" style="endArrow=none;html=1;rounded=0;entryX=0.856;entryY=-0.006;entryDx=0;entryDy=0;exitX=0.5;exitY=1;exitDx=0;exitDy=0;entryPerimeter=0;" edge="1" parent="1" source="G6E1uZcaA4SNPLldOdaM-112" target="G6E1uZcaA4SNPLldOdaM-114">
          <mxGeometry width="50" height="50" relative="1" as="geometry">
            <mxPoint x="143" y="1120" as="sourcePoint" />
            <mxPoint x="250" y="1279" as="targetPoint" />
          </mxGeometry>
        </mxCell>
        <mxCell id="G6E1uZcaA4SNPLldOdaM-137" value="Approve/ Cancel" style="rhombus;whiteSpace=wrap;html=1;" vertex="1" parent="1">
          <mxGeometry x="-850" y="820" width="120" height="90" as="geometry" />
        </mxCell>
        <mxCell id="G6E1uZcaA4SNPLldOdaM-138" value="" style="endArrow=none;html=1;rounded=0;entryX=0;entryY=0;entryDx=0;entryDy=0;exitX=0.5;exitY=1;exitDx=0;exitDy=0;jumpStyle=arc;jumpSize=14;" edge="1" parent="1" source="G6E1uZcaA4SNPLldOdaM-137" target="G6E1uZcaA4SNPLldOdaM-114">
          <mxGeometry width="50" height="50" relative="1" as="geometry">
            <mxPoint x="-620" y="1255" as="sourcePoint" />
            <mxPoint x="-632" y="1340" as="targetPoint" />
          </mxGeometry>
        </mxCell>
        <mxCell id="G6E1uZcaA4SNPLldOdaM-139" value="" style="endArrow=none;html=1;rounded=0;entryX=0;entryY=1;entryDx=0;entryDy=0;exitX=0.5;exitY=0;exitDx=0;exitDy=0;" edge="1" parent="1" source="G6E1uZcaA4SNPLldOdaM-137" target="G6E1uZcaA4SNPLldOdaM-20">
          <mxGeometry width="50" height="50" relative="1" as="geometry">
            <mxPoint x="-650" y="1000" as="sourcePoint" />
            <mxPoint x="60" y="1060" as="targetPoint" />
          </mxGeometry>
        </mxCell>
        <mxCell id="G6E1uZcaA4SNPLldOdaM-140" value="vehicle" style="rounded=0;whiteSpace=wrap;html=1;" vertex="1" parent="1">
          <mxGeometry x="1690" y="935" width="100" height="40" as="geometry" />
        </mxCell>
        <mxCell id="G6E1uZcaA4SNPLldOdaM-141" value="Event organizer" style="rounded=0;whiteSpace=wrap;html=1;" vertex="1" parent="1">
          <mxGeometry x="1410" y="285" width="100" height="40" as="geometry" />
        </mxCell>
        <mxCell id="G6E1uZcaA4SNPLldOdaM-142" value="Restaurant Owner" style="rounded=0;whiteSpace=wrap;html=1;" vertex="1" parent="1">
          <mxGeometry x="1480" y="110" width="110" height="50" as="geometry" />
        </mxCell>
        <mxCell id="G6E1uZcaA4SNPLldOdaM-144" value="" style="endArrow=none;html=1;rounded=0;entryX=1;entryY=0.75;entryDx=0;entryDy=0;exitX=0;exitY=0.5;exitDx=0;exitDy=0;" edge="1" parent="1" source="G6E1uZcaA4SNPLldOdaM-145" target="G6E1uZcaA4SNPLldOdaM-35">
          <mxGeometry width="50" height="50" relative="1" as="geometry">
            <mxPoint x="1550" y="490" as="sourcePoint" />
            <mxPoint x="1400" y="760" as="targetPoint" />
          </mxGeometry>
        </mxCell>
        <mxCell id="G6E1uZcaA4SNPLldOdaM-145" value="Add" style="rhombus;whiteSpace=wrap;html=1;" vertex="1" parent="1">
          <mxGeometry x="1940" y="570" width="110" height="75" as="geometry" />
        </mxCell>
        <mxCell id="G6E1uZcaA4SNPLldOdaM-146" value="Tour Package" style="rounded=0;whiteSpace=wrap;html=1;" vertex="1" parent="1">
          <mxGeometry x="2200" y="665" width="110" height="60" as="geometry" />
        </mxCell>
        <mxCell id="G6E1uZcaA4SNPLldOdaM-147" value="Current_User" style="ellipse;whiteSpace=wrap;html=1;" vertex="1" parent="1">
          <mxGeometry x="2010" y="745" width="120" height="50" as="geometry" />
        </mxCell>
        <mxCell id="G6E1uZcaA4SNPLldOdaM-148" value="" style="endArrow=none;html=1;rounded=0;entryX=0;entryY=0.25;entryDx=0;entryDy=0;exitX=0.5;exitY=0;exitDx=0;exitDy=0;" edge="1" parent="1" source="G6E1uZcaA4SNPLldOdaM-147" target="G6E1uZcaA4SNPLldOdaM-146">
          <mxGeometry width="50" height="50" relative="1" as="geometry">
            <mxPoint x="2040" y="528" as="sourcePoint" />
            <mxPoint x="1835" y="460" as="targetPoint" />
            <Array as="points" />
          </mxGeometry>
        </mxCell>
        <mxCell id="G6E1uZcaA4SNPLldOdaM-149" value="&lt;u&gt;id&lt;/u&gt;" style="ellipse;whiteSpace=wrap;html=1;" vertex="1" parent="1">
          <mxGeometry x="2090" y="830" width="120" height="50" as="geometry" />
        </mxCell>
        <mxCell id="G6E1uZcaA4SNPLldOdaM-150" value="image" style="ellipse;whiteSpace=wrap;html=1;" vertex="1" parent="1">
          <mxGeometry x="2290" y="820" width="120" height="50" as="geometry" />
        </mxCell>
        <mxCell id="G6E1uZcaA4SNPLldOdaM-151" value="Name" style="ellipse;whiteSpace=wrap;html=1;" vertex="1" parent="1">
          <mxGeometry x="2460" y="745" width="120" height="50" as="geometry" />
        </mxCell>
        <mxCell id="G6E1uZcaA4SNPLldOdaM-152" value="Category" style="ellipse;whiteSpace=wrap;html=1;" vertex="1" parent="1">
          <mxGeometry x="2490" y="685" width="120" height="50" as="geometry" />
        </mxCell>
        <mxCell id="G6E1uZcaA4SNPLldOdaM-153" value="price" style="ellipse;whiteSpace=wrap;html=1;" vertex="1" parent="1">
          <mxGeometry x="2590" y="627.5" width="120" height="50" as="geometry" />
        </mxCell>
        <mxCell id="G6E1uZcaA4SNPLldOdaM-154" value="Max_count" style="ellipse;whiteSpace=wrap;html=1;" vertex="1" parent="1">
          <mxGeometry x="2480" y="590" width="120" height="50" as="geometry" />
        </mxCell>
        <mxCell id="G6E1uZcaA4SNPLldOdaM-155" value="languages" style="ellipse;whiteSpace=wrap;html=1;" vertex="1" parent="1">
          <mxGeometry x="2270" y="510" width="120" height="50" as="geometry" />
        </mxCell>
        <mxCell id="G6E1uZcaA4SNPLldOdaM-156" value="Duration" style="ellipse;whiteSpace=wrap;html=1;" vertex="1" parent="1">
          <mxGeometry x="2170" y="577.5" width="120" height="50" as="geometry" />
        </mxCell>
        <mxCell id="G6E1uZcaA4SNPLldOdaM-157" value="cities" style="ellipse;whiteSpace=wrap;html=1;" vertex="1" parent="1">
          <mxGeometry x="2400" y="545" width="120" height="50" as="geometry" />
        </mxCell>
        <mxCell id="G6E1uZcaA4SNPLldOdaM-158" value="description" style="ellipse;whiteSpace=wrap;html=1;" vertex="1" parent="1">
          <mxGeometry x="2420" y="810" width="120" height="50" as="geometry" />
        </mxCell>
        <mxCell id="G6E1uZcaA4SNPLldOdaM-159" value="introduction" style="ellipse;whiteSpace=wrap;html=1;" vertex="1" parent="1">
          <mxGeometry x="2250" y="880" width="120" height="50" as="geometry" />
        </mxCell>
        <mxCell id="G6E1uZcaA4SNPLldOdaM-160" value="" style="endArrow=none;html=1;rounded=0;entryX=0;entryY=1;entryDx=0;entryDy=0;" edge="1" parent="1" source="G6E1uZcaA4SNPLldOdaM-149" target="G6E1uZcaA4SNPLldOdaM-146">
          <mxGeometry width="50" height="50" relative="1" as="geometry">
            <mxPoint x="2110" y="780" as="sourcePoint" />
            <mxPoint x="2210" y="690" as="targetPoint" />
            <Array as="points" />
          </mxGeometry>
        </mxCell>
        <mxCell id="G6E1uZcaA4SNPLldOdaM-161" value="" style="endArrow=none;html=1;rounded=0;entryX=0.25;entryY=1;entryDx=0;entryDy=0;exitX=0;exitY=0;exitDx=0;exitDy=0;" edge="1" parent="1" source="G6E1uZcaA4SNPLldOdaM-159" target="G6E1uZcaA4SNPLldOdaM-146">
          <mxGeometry width="50" height="50" relative="1" as="geometry">
            <mxPoint x="2202" y="840" as="sourcePoint" />
            <mxPoint x="2210" y="735" as="targetPoint" />
            <Array as="points" />
          </mxGeometry>
        </mxCell>
        <mxCell id="G6E1uZcaA4SNPLldOdaM-162" value="" style="endArrow=none;html=1;rounded=0;entryX=0.5;entryY=1;entryDx=0;entryDy=0;exitX=0;exitY=0;exitDx=0;exitDy=0;" edge="1" parent="1" source="G6E1uZcaA4SNPLldOdaM-150" target="G6E1uZcaA4SNPLldOdaM-146">
          <mxGeometry width="50" height="50" relative="1" as="geometry">
            <mxPoint x="2277" y="897" as="sourcePoint" />
            <mxPoint x="2238" y="735" as="targetPoint" />
            <Array as="points" />
          </mxGeometry>
        </mxCell>
        <mxCell id="G6E1uZcaA4SNPLldOdaM-163" value="" style="endArrow=none;html=1;rounded=0;entryX=0.75;entryY=1;entryDx=0;entryDy=0;exitX=0;exitY=0.5;exitDx=0;exitDy=0;" edge="1" parent="1" source="G6E1uZcaA4SNPLldOdaM-158" target="G6E1uZcaA4SNPLldOdaM-146">
          <mxGeometry width="50" height="50" relative="1" as="geometry">
            <mxPoint x="2317" y="837" as="sourcePoint" />
            <mxPoint x="2265" y="735" as="targetPoint" />
            <Array as="points" />
          </mxGeometry>
        </mxCell>
        <mxCell id="G6E1uZcaA4SNPLldOdaM-164" value="" style="endArrow=none;html=1;rounded=0;entryX=1;entryY=1;entryDx=0;entryDy=0;exitX=0;exitY=0.5;exitDx=0;exitDy=0;" edge="1" parent="1" source="G6E1uZcaA4SNPLldOdaM-151" target="G6E1uZcaA4SNPLldOdaM-146">
          <mxGeometry width="50" height="50" relative="1" as="geometry">
            <mxPoint x="2430" y="845" as="sourcePoint" />
            <mxPoint x="2293" y="735" as="targetPoint" />
            <Array as="points" />
          </mxGeometry>
        </mxCell>
        <mxCell id="G6E1uZcaA4SNPLldOdaM-165" value="" style="endArrow=none;html=1;rounded=0;entryX=1;entryY=0.75;entryDx=0;entryDy=0;exitX=0;exitY=0.5;exitDx=0;exitDy=0;" edge="1" parent="1" source="G6E1uZcaA4SNPLldOdaM-152" target="G6E1uZcaA4SNPLldOdaM-146">
          <mxGeometry width="50" height="50" relative="1" as="geometry">
            <mxPoint x="2470" y="780" as="sourcePoint" />
            <mxPoint x="2320" y="735" as="targetPoint" />
            <Array as="points" />
          </mxGeometry>
        </mxCell>
        <mxCell id="G6E1uZcaA4SNPLldOdaM-166" value="" style="endArrow=none;html=1;rounded=0;entryX=1;entryY=0.5;entryDx=0;entryDy=0;exitX=0;exitY=0.5;exitDx=0;exitDy=0;" edge="1" parent="1" source="G6E1uZcaA4SNPLldOdaM-153" target="G6E1uZcaA4SNPLldOdaM-146">
          <mxGeometry width="50" height="50" relative="1" as="geometry">
            <mxPoint x="2560" y="720" as="sourcePoint" />
            <mxPoint x="2320" y="720" as="targetPoint" />
            <Array as="points" />
          </mxGeometry>
        </mxCell>
        <mxCell id="G6E1uZcaA4SNPLldOdaM-167" value="" style="endArrow=none;html=1;rounded=0;entryX=1;entryY=0;entryDx=0;entryDy=0;exitX=0;exitY=1;exitDx=0;exitDy=0;" edge="1" parent="1" source="G6E1uZcaA4SNPLldOdaM-157" target="G6E1uZcaA4SNPLldOdaM-146">
          <mxGeometry width="50" height="50" relative="1" as="geometry">
            <mxPoint x="2600" y="663" as="sourcePoint" />
            <mxPoint x="2320" y="705" as="targetPoint" />
            <Array as="points" />
          </mxGeometry>
        </mxCell>
        <mxCell id="G6E1uZcaA4SNPLldOdaM-168" value="" style="endArrow=none;html=1;rounded=0;exitX=0.5;exitY=1;exitDx=0;exitDy=0;" edge="1" parent="1" source="G6E1uZcaA4SNPLldOdaM-156" target="G6E1uZcaA4SNPLldOdaM-146">
          <mxGeometry width="50" height="50" relative="1" as="geometry">
            <mxPoint x="2447" y="648" as="sourcePoint" />
            <mxPoint x="2240" y="660" as="targetPoint" />
            <Array as="points" />
          </mxGeometry>
        </mxCell>
        <mxCell id="G6E1uZcaA4SNPLldOdaM-169" value="" style="endArrow=none;html=1;rounded=0;entryX=0.81;entryY=-0.002;entryDx=0;entryDy=0;exitX=0.407;exitY=1.001;exitDx=0;exitDy=0;exitPerimeter=0;entryPerimeter=0;" edge="1" parent="1" source="G6E1uZcaA4SNPLldOdaM-155" target="G6E1uZcaA4SNPLldOdaM-146">
          <mxGeometry width="50" height="50" relative="1" as="geometry">
            <mxPoint x="2387" y="558" as="sourcePoint" />
            <mxPoint x="2308" y="676" as="targetPoint" />
            <Array as="points" />
          </mxGeometry>
        </mxCell>
        <mxCell id="G6E1uZcaA4SNPLldOdaM-170" value="" style="endArrow=none;html=1;rounded=0;entryX=1;entryY=0.25;entryDx=0;entryDy=0;exitX=0;exitY=0.5;exitDx=0;exitDy=0;" edge="1" parent="1" source="G6E1uZcaA4SNPLldOdaM-154" target="G6E1uZcaA4SNPLldOdaM-146">
          <mxGeometry width="50" height="50" relative="1" as="geometry">
            <mxPoint x="2617" y="538" as="sourcePoint" />
            <mxPoint x="2320" y="675" as="targetPoint" />
            <Array as="points" />
          </mxGeometry>
        </mxCell>
        <mxCell id="G6E1uZcaA4SNPLldOdaM-171" value="" style="endArrow=none;html=1;rounded=0;exitX=1;exitY=0.5;exitDx=0;exitDy=0;entryX=0.15;entryY=-0.004;entryDx=0;entryDy=0;entryPerimeter=0;" edge="1" parent="1" source="G6E1uZcaA4SNPLldOdaM-145" target="G6E1uZcaA4SNPLldOdaM-146">
          <mxGeometry width="50" height="50" relative="1" as="geometry">
            <mxPoint x="2110" y="780" as="sourcePoint" />
            <mxPoint x="2210" y="660" as="targetPoint" />
            <Array as="points" />
          </mxGeometry>
        </mxCell>
        <mxCell id="G6E1uZcaA4SNPLldOdaM-174" value="" style="endArrow=none;html=1;rounded=0;exitX=0.008;exitY=0.915;exitDx=0;exitDy=0;entryX=0;entryY=0.5;entryDx=0;entryDy=0;strokeWidth=3;exitPerimeter=0;" edge="1" parent="1" source="G6E1uZcaA4SNPLldOdaM-55" target="G6E1uZcaA4SNPLldOdaM-35">
          <mxGeometry width="50" height="50" relative="1" as="geometry">
            <mxPoint x="388" y="242" as="sourcePoint" />
            <mxPoint x="860" y="155" as="targetPoint" />
          </mxGeometry>
        </mxCell>
        <mxCell id="G6E1uZcaA4SNPLldOdaM-175" value="" style="endArrow=none;html=1;rounded=0;exitX=1;exitY=0.75;exitDx=0;exitDy=0;" edge="1" parent="1" source="G6E1uZcaA4SNPLldOdaM-10">
          <mxGeometry width="50" height="50" relative="1" as="geometry">
            <mxPoint x="1120" y="240" as="sourcePoint" />
            <mxPoint x="1110" y="200" as="targetPoint" />
          </mxGeometry>
        </mxCell>
        <mxCell id="G6E1uZcaA4SNPLldOdaM-176" value="" style="endArrow=none;html=1;rounded=0;exitX=0.5;exitY=1;exitDx=0;exitDy=0;strokeWidth=3;entryX=0.369;entryY=-0.08;entryDx=0;entryDy=0;entryPerimeter=0;" edge="1" parent="1" source="G6E1uZcaA4SNPLldOdaM-56" target="G6E1uZcaA4SNPLldOdaM-309">
          <mxGeometry width="50" height="50" relative="1" as="geometry">
            <mxPoint x="1120" y="240" as="sourcePoint" />
            <mxPoint x="1590" y="660" as="targetPoint" />
            <Array as="points">
              <mxPoint x="1480" y="480" />
            </Array>
          </mxGeometry>
        </mxCell>
        <mxCell id="G6E1uZcaA4SNPLldOdaM-177" value="" style="endArrow=none;html=1;rounded=0;exitX=1;exitY=0.5;exitDx=0;exitDy=0;entryX=0;entryY=0.5;entryDx=0;entryDy=0;strokeWidth=3;" edge="1" parent="1" source="G6E1uZcaA4SNPLldOdaM-56" target="G6E1uZcaA4SNPLldOdaM-141">
          <mxGeometry width="50" height="50" relative="1" as="geometry">
            <mxPoint x="1177" y="241" as="sourcePoint" />
            <mxPoint x="1380" y="270" as="targetPoint" />
          </mxGeometry>
        </mxCell>
        <mxCell id="G6E1uZcaA4SNPLldOdaM-178" value="" style="endArrow=none;html=1;rounded=0;exitX=0.5;exitY=1;exitDx=0;exitDy=0;entryX=0;entryY=0.5;entryDx=0;entryDy=0;strokeWidth=3;" edge="1" parent="1" source="G6E1uZcaA4SNPLldOdaM-55" target="G6E1uZcaA4SNPLldOdaM-142">
          <mxGeometry width="50" height="50" relative="1" as="geometry">
            <mxPoint x="1170" y="225" as="sourcePoint" />
            <mxPoint x="1380" y="175" as="targetPoint" />
          </mxGeometry>
        </mxCell>
        <mxCell id="G6E1uZcaA4SNPLldOdaM-179" value="Hotel owner" style="rounded=0;whiteSpace=wrap;html=1;" vertex="1" parent="1">
          <mxGeometry x="1285" width="100" height="40" as="geometry" />
        </mxCell>
        <mxCell id="G6E1uZcaA4SNPLldOdaM-180" value="" style="endArrow=none;html=1;rounded=0;exitX=0.861;exitY=0.605;exitDx=0;exitDy=0;entryX=0;entryY=1;entryDx=0;entryDy=0;exitPerimeter=0;strokeWidth=3;" edge="1" parent="1" source="G6E1uZcaA4SNPLldOdaM-55" target="G6E1uZcaA4SNPLldOdaM-179">
          <mxGeometry width="50" height="50" relative="1" as="geometry">
            <mxPoint x="1160" y="210" as="sourcePoint" />
            <mxPoint x="1464" y="51" as="targetPoint" />
          </mxGeometry>
        </mxCell>
        <mxCell id="G6E1uZcaA4SNPLldOdaM-181" value="&lt;u&gt;Vehicle_id&lt;/u&gt;" style="ellipse;whiteSpace=wrap;html=1;" vertex="1" parent="1">
          <mxGeometry x="-10" y="1345" width="120" height="50" as="geometry" />
        </mxCell>
        <mxCell id="G6E1uZcaA4SNPLldOdaM-182" value="&lt;u&gt;User_Id&lt;/u&gt;" style="ellipse;whiteSpace=wrap;html=1;" vertex="1" parent="1">
          <mxGeometry x="10" y="1410" width="120" height="50" as="geometry" />
        </mxCell>
        <mxCell id="G6E1uZcaA4SNPLldOdaM-183" value="Vehicle number" style="ellipse;whiteSpace=wrap;html=1;" vertex="1" parent="1">
          <mxGeometry x="80" y="1500" width="120" height="50" as="geometry" />
        </mxCell>
        <mxCell id="G6E1uZcaA4SNPLldOdaM-184" value="Date" style="ellipse;whiteSpace=wrap;html=1;" vertex="1" parent="1">
          <mxGeometry x="150" y="1610" width="120" height="50" as="geometry" />
        </mxCell>
        <mxCell id="G6E1uZcaA4SNPLldOdaM-185" value="Location" style="ellipse;whiteSpace=wrap;html=1;" vertex="1" parent="1">
          <mxGeometry x="240" y="1550" width="120" height="50" as="geometry" />
        </mxCell>
        <mxCell id="G6E1uZcaA4SNPLldOdaM-186" value="Pickupdate" style="ellipse;whiteSpace=wrap;html=1;" vertex="1" parent="1">
          <mxGeometry x="365" y="1550" width="120" height="50" as="geometry" />
        </mxCell>
        <mxCell id="G6E1uZcaA4SNPLldOdaM-187" value="Return date" style="ellipse;whiteSpace=wrap;html=1;" vertex="1" parent="1">
          <mxGeometry x="480" y="1580" width="120" height="50" as="geometry" />
        </mxCell>
        <mxCell id="G6E1uZcaA4SNPLldOdaM-188" value="price&lt;br&gt;" style="ellipse;whiteSpace=wrap;html=1;" vertex="1" parent="1">
          <mxGeometry x="500" y="1360" width="120" height="50" as="geometry" />
        </mxCell>
        <mxCell id="G6E1uZcaA4SNPLldOdaM-189" value="ownerID" style="ellipse;whiteSpace=wrap;html=1;" vertex="1" parent="1">
          <mxGeometry x="470" y="1480" width="120" height="50" as="geometry" />
        </mxCell>
        <mxCell id="G6E1uZcaA4SNPLldOdaM-190" value="Transection_ID" style="ellipse;whiteSpace=wrap;html=1;" vertex="1" parent="1">
          <mxGeometry x="490" y="1420" width="120" height="50" as="geometry" />
        </mxCell>
        <mxCell id="G6E1uZcaA4SNPLldOdaM-191" value="" style="endArrow=none;html=1;rounded=0;entryX=0;entryY=0.5;entryDx=0;entryDy=0;exitX=1;exitY=0.5;exitDx=0;exitDy=0;" edge="1" parent="1" source="G6E1uZcaA4SNPLldOdaM-181" target="G6E1uZcaA4SNPLldOdaM-68">
          <mxGeometry width="50" height="50" relative="1" as="geometry">
            <mxPoint x="180" y="1180" as="sourcePoint" />
            <mxPoint x="-10" y="1519" as="targetPoint" />
          </mxGeometry>
        </mxCell>
        <mxCell id="G6E1uZcaA4SNPLldOdaM-192" value="" style="endArrow=none;html=1;rounded=0;entryX=0;entryY=0.75;entryDx=0;entryDy=0;" edge="1" parent="1" source="G6E1uZcaA4SNPLldOdaM-182" target="G6E1uZcaA4SNPLldOdaM-68">
          <mxGeometry width="50" height="50" relative="1" as="geometry">
            <mxPoint x="170" y="1190" as="sourcePoint" />
            <mxPoint x="260" y="1190" as="targetPoint" />
          </mxGeometry>
        </mxCell>
        <mxCell id="G6E1uZcaA4SNPLldOdaM-193" value="" style="endArrow=none;html=1;rounded=0;entryX=0.085;entryY=1.027;entryDx=0;entryDy=0;exitX=1;exitY=0;exitDx=0;exitDy=0;entryPerimeter=0;" edge="1" parent="1" source="G6E1uZcaA4SNPLldOdaM-183" target="G6E1uZcaA4SNPLldOdaM-68">
          <mxGeometry width="50" height="50" relative="1" as="geometry">
            <mxPoint x="136" y="1249" as="sourcePoint" />
            <mxPoint x="260" y="1205" as="targetPoint" />
          </mxGeometry>
        </mxCell>
        <mxCell id="G6E1uZcaA4SNPLldOdaM-194" value="" style="endArrow=none;html=1;rounded=0;entryX=0.25;entryY=1;entryDx=0;entryDy=0;" edge="1" parent="1" source="G6E1uZcaA4SNPLldOdaM-184" target="G6E1uZcaA4SNPLldOdaM-68">
          <mxGeometry width="50" height="50" relative="1" as="geometry">
            <mxPoint x="183" y="1317" as="sourcePoint" />
            <mxPoint x="269" y="1222" as="targetPoint" />
          </mxGeometry>
        </mxCell>
        <mxCell id="G6E1uZcaA4SNPLldOdaM-195" value="" style="endArrow=none;html=1;rounded=0;entryX=0.391;entryY=1.013;entryDx=0;entryDy=0;exitX=0.5;exitY=0;exitDx=0;exitDy=0;entryPerimeter=0;" edge="1" parent="1" source="G6E1uZcaA4SNPLldOdaM-185" target="G6E1uZcaA4SNPLldOdaM-68">
          <mxGeometry width="50" height="50" relative="1" as="geometry">
            <mxPoint x="230" y="1355" as="sourcePoint" />
            <mxPoint x="288" y="1220" as="targetPoint" />
          </mxGeometry>
        </mxCell>
        <mxCell id="G6E1uZcaA4SNPLldOdaM-196" value="" style="endArrow=none;html=1;rounded=0;entryX=0.5;entryY=1;entryDx=0;entryDy=0;exitX=0.242;exitY=0.02;exitDx=0;exitDy=0;exitPerimeter=0;" edge="1" parent="1" source="G6E1uZcaA4SNPLldOdaM-186" target="G6E1uZcaA4SNPLldOdaM-68">
          <mxGeometry width="50" height="50" relative="1" as="geometry">
            <mxPoint x="300" y="1405" as="sourcePoint" />
            <mxPoint x="303" y="1221" as="targetPoint" />
          </mxGeometry>
        </mxCell>
        <mxCell id="G6E1uZcaA4SNPLldOdaM-197" value="" style="endArrow=none;html=1;rounded=0;entryX=0.75;entryY=1;entryDx=0;entryDy=0;exitX=0.583;exitY=0.047;exitDx=0;exitDy=0;exitPerimeter=0;" edge="1" parent="1" source="G6E1uZcaA4SNPLldOdaM-187" target="G6E1uZcaA4SNPLldOdaM-68">
          <mxGeometry width="50" height="50" relative="1" as="geometry">
            <mxPoint x="359" y="1356" as="sourcePoint" />
            <mxPoint x="315" y="1220" as="targetPoint" />
          </mxGeometry>
        </mxCell>
        <mxCell id="G6E1uZcaA4SNPLldOdaM-198" value="" style="endArrow=none;html=1;rounded=0;entryX=1;entryY=1;entryDx=0;entryDy=0;exitX=0;exitY=0.5;exitDx=0;exitDy=0;" edge="1" parent="1" source="G6E1uZcaA4SNPLldOdaM-189" target="G6E1uZcaA4SNPLldOdaM-68">
          <mxGeometry width="50" height="50" relative="1" as="geometry">
            <mxPoint x="449" y="1322" as="sourcePoint" />
            <mxPoint x="343" y="1220" as="targetPoint" />
          </mxGeometry>
        </mxCell>
        <mxCell id="G6E1uZcaA4SNPLldOdaM-199" value="" style="endArrow=none;html=1;rounded=0;entryX=1;entryY=0.75;entryDx=0;entryDy=0;exitX=-0.022;exitY=0.648;exitDx=0;exitDy=0;exitPerimeter=0;" edge="1" parent="1" source="G6E1uZcaA4SNPLldOdaM-190" target="G6E1uZcaA4SNPLldOdaM-68">
          <mxGeometry width="50" height="50" relative="1" as="geometry">
            <mxPoint x="460" y="1255" as="sourcePoint" />
            <mxPoint x="370" y="1220" as="targetPoint" />
          </mxGeometry>
        </mxCell>
        <mxCell id="G6E1uZcaA4SNPLldOdaM-200" value="" style="endArrow=none;html=1;rounded=0;entryX=1;entryY=0.25;entryDx=0;entryDy=0;exitX=0;exitY=0.5;exitDx=0;exitDy=0;" edge="1" parent="1" source="G6E1uZcaA4SNPLldOdaM-188" target="G6E1uZcaA4SNPLldOdaM-68">
          <mxGeometry width="50" height="50" relative="1" as="geometry">
            <mxPoint x="437" y="1202" as="sourcePoint" />
            <mxPoint x="370" y="1205" as="targetPoint" />
          </mxGeometry>
        </mxCell>
        <mxCell id="G6E1uZcaA4SNPLldOdaM-201" value="Approve/ Cancel" style="rhombus;whiteSpace=wrap;html=1;" vertex="1" parent="1">
          <mxGeometry x="-690" y="760" width="120" height="90" as="geometry" />
        </mxCell>
        <mxCell id="G6E1uZcaA4SNPLldOdaM-202" value="" style="endArrow=none;html=1;rounded=0;entryX=0.5;entryY=0;entryDx=0;entryDy=0;exitX=0;exitY=0.5;exitDx=0;exitDy=0;" edge="1" parent="1" source="G6E1uZcaA4SNPLldOdaM-204" target="G6E1uZcaA4SNPLldOdaM-201">
          <mxGeometry width="50" height="50" relative="1" as="geometry">
            <mxPoint x="430" y="1140" as="sourcePoint" />
            <mxPoint x="370" y="1175" as="targetPoint" />
          </mxGeometry>
        </mxCell>
        <mxCell id="G6E1uZcaA4SNPLldOdaM-203" value="" style="endArrow=none;html=1;rounded=0;entryX=0.5;entryY=1;entryDx=0;entryDy=0;exitX=0.25;exitY=0;exitDx=0;exitDy=0;jumpStyle=arc;" edge="1" parent="1" source="G6E1uZcaA4SNPLldOdaM-68" target="G6E1uZcaA4SNPLldOdaM-201">
          <mxGeometry width="50" height="50" relative="1" as="geometry">
            <mxPoint x="195" y="650" as="sourcePoint" />
            <mxPoint x="240" y="590" as="targetPoint" />
          </mxGeometry>
        </mxCell>
        <mxCell id="G6E1uZcaA4SNPLldOdaM-204" value="Vehicle Manager" style="rounded=0;whiteSpace=wrap;html=1;" vertex="1" parent="1">
          <mxGeometry x="-500" y="490" width="110" height="60" as="geometry" />
        </mxCell>
        <mxCell id="G6E1uZcaA4SNPLldOdaM-205" value="hotel_id" style="ellipse;whiteSpace=wrap;html=1;" vertex="1" parent="1">
          <mxGeometry x="340" y="1215" width="120" height="50" as="geometry" />
        </mxCell>
        <mxCell id="G6E1uZcaA4SNPLldOdaM-206" value="room_id" style="ellipse;whiteSpace=wrap;html=1;" vertex="1" parent="1">
          <mxGeometry x="380" y="1280" width="120" height="50" as="geometry" />
        </mxCell>
        <mxCell id="G6E1uZcaA4SNPLldOdaM-207" value="user_id" style="ellipse;whiteSpace=wrap;html=1;" vertex="1" parent="1">
          <mxGeometry x="510" y="1290" width="120" height="50" as="geometry" />
        </mxCell>
        <mxCell id="G6E1uZcaA4SNPLldOdaM-208" value="total amount" style="ellipse;whiteSpace=wrap;html=1;" vertex="1" parent="1">
          <mxGeometry x="700" y="1202.5" width="120" height="50" as="geometry" />
        </mxCell>
        <mxCell id="G6E1uZcaA4SNPLldOdaM-209" value="checkindata" style="ellipse;whiteSpace=wrap;html=1;" vertex="1" parent="1">
          <mxGeometry x="630" y="1345" width="120" height="50" as="geometry" />
        </mxCell>
        <mxCell id="G6E1uZcaA4SNPLldOdaM-210" value="checkoutdate" style="ellipse;whiteSpace=wrap;html=1;" vertex="1" parent="1">
          <mxGeometry x="730" y="1265" width="120" height="50" as="geometry" />
        </mxCell>
        <mxCell id="G6E1uZcaA4SNPLldOdaM-211" value="total days" style="ellipse;whiteSpace=wrap;html=1;" vertex="1" parent="1">
          <mxGeometry x="785" y="1370" width="120" height="50" as="geometry" />
        </mxCell>
        <mxCell id="G6E1uZcaA4SNPLldOdaM-212" value="&lt;u&gt;reserveid&lt;/u&gt;" style="ellipse;whiteSpace=wrap;html=1;" vertex="1" parent="1">
          <mxGeometry x="305" y="1160" width="120" height="50" as="geometry" />
        </mxCell>
        <mxCell id="G6E1uZcaA4SNPLldOdaM-213" value="" style="endArrow=none;html=1;rounded=0;entryX=1;entryY=0.5;entryDx=0;entryDy=0;exitX=0;exitY=0.5;exitDx=0;exitDy=0;" edge="1" parent="1" source="G6E1uZcaA4SNPLldOdaM-66" target="G6E1uZcaA4SNPLldOdaM-212">
          <mxGeometry width="50" height="50" relative="1" as="geometry">
            <mxPoint x="510" y="1395" as="sourcePoint" />
            <mxPoint x="360" y="1405" as="targetPoint" />
          </mxGeometry>
        </mxCell>
        <mxCell id="G6E1uZcaA4SNPLldOdaM-214" value="" style="endArrow=none;html=1;rounded=0;entryX=1;entryY=0;entryDx=0;entryDy=0;" edge="1" parent="1" target="G6E1uZcaA4SNPLldOdaM-205">
          <mxGeometry width="50" height="50" relative="1" as="geometry">
            <mxPoint x="520" y="1215" as="sourcePoint" />
            <mxPoint x="460" y="1180" as="targetPoint" />
          </mxGeometry>
        </mxCell>
        <mxCell id="G6E1uZcaA4SNPLldOdaM-215" value="" style="endArrow=none;html=1;rounded=0;entryX=1;entryY=0;entryDx=0;entryDy=0;exitX=0;exitY=1;exitDx=0;exitDy=0;" edge="1" parent="1" source="G6E1uZcaA4SNPLldOdaM-66" target="G6E1uZcaA4SNPLldOdaM-206">
          <mxGeometry width="50" height="50" relative="1" as="geometry">
            <mxPoint x="530" y="1225" as="sourcePoint" />
            <mxPoint x="453" y="1233" as="targetPoint" />
          </mxGeometry>
        </mxCell>
        <mxCell id="G6E1uZcaA4SNPLldOdaM-216" value="" style="endArrow=none;html=1;rounded=0;exitX=0.25;exitY=1;exitDx=0;exitDy=0;" edge="1" parent="1" source="G6E1uZcaA4SNPLldOdaM-66" target="G6E1uZcaA4SNPLldOdaM-207">
          <mxGeometry width="50" height="50" relative="1" as="geometry">
            <mxPoint x="530" y="1245" as="sourcePoint" />
            <mxPoint x="493" y="1298" as="targetPoint" />
          </mxGeometry>
        </mxCell>
        <mxCell id="G6E1uZcaA4SNPLldOdaM-217" value="" style="endArrow=none;html=1;rounded=0;exitX=0.594;exitY=1.011;exitDx=0;exitDy=0;entryX=0.317;entryY=0.053;entryDx=0;entryDy=0;entryPerimeter=0;exitPerimeter=0;" edge="1" parent="1" source="G6E1uZcaA4SNPLldOdaM-66" target="G6E1uZcaA4SNPLldOdaM-209">
          <mxGeometry width="50" height="50" relative="1" as="geometry">
            <mxPoint x="558" y="1245" as="sourcePoint" />
            <mxPoint x="573" y="1300" as="targetPoint" />
          </mxGeometry>
        </mxCell>
        <mxCell id="G6E1uZcaA4SNPLldOdaM-218" value="" style="endArrow=none;html=1;rounded=0;exitX=0.75;exitY=1;exitDx=0;exitDy=0;entryX=0;entryY=0;entryDx=0;entryDy=0;" edge="1" parent="1" source="G6E1uZcaA4SNPLldOdaM-66" target="G6E1uZcaA4SNPLldOdaM-211">
          <mxGeometry width="50" height="50" relative="1" as="geometry">
            <mxPoint x="595" y="1246" as="sourcePoint" />
            <mxPoint x="678" y="1358" as="targetPoint" />
          </mxGeometry>
        </mxCell>
        <mxCell id="G6E1uZcaA4SNPLldOdaM-219" value="" style="endArrow=none;html=1;rounded=0;exitX=1;exitY=1;exitDx=0;exitDy=0;entryX=0;entryY=0.5;entryDx=0;entryDy=0;" edge="1" parent="1" source="G6E1uZcaA4SNPLldOdaM-66" target="G6E1uZcaA4SNPLldOdaM-210">
          <mxGeometry width="50" height="50" relative="1" as="geometry">
            <mxPoint x="613" y="1245" as="sourcePoint" />
            <mxPoint x="812" y="1388" as="targetPoint" />
          </mxGeometry>
        </mxCell>
        <mxCell id="G6E1uZcaA4SNPLldOdaM-220" value="" style="endArrow=none;html=1;rounded=0;exitX=1;exitY=0.5;exitDx=0;exitDy=0;entryX=0;entryY=0.5;entryDx=0;entryDy=0;" edge="1" parent="1" source="G6E1uZcaA4SNPLldOdaM-66" target="G6E1uZcaA4SNPLldOdaM-208">
          <mxGeometry width="50" height="50" relative="1" as="geometry">
            <mxPoint x="640" y="1245" as="sourcePoint" />
            <mxPoint x="740" y="1300" as="targetPoint" />
          </mxGeometry>
        </mxCell>
        <mxCell id="G6E1uZcaA4SNPLldOdaM-222" value="Approve/ Cancel" style="rhombus;whiteSpace=wrap;html=1;" vertex="1" parent="1">
          <mxGeometry x="-290" y="880" width="120" height="90" as="geometry" />
        </mxCell>
        <mxCell id="G6E1uZcaA4SNPLldOdaM-223" value="" style="endArrow=none;html=1;rounded=0;entryX=0.5;entryY=1;entryDx=0;entryDy=0;exitX=0;exitY=0.25;exitDx=0;exitDy=0;jumpStyle=arc;" edge="1" parent="1" source="G6E1uZcaA4SNPLldOdaM-66" target="G6E1uZcaA4SNPLldOdaM-222">
          <mxGeometry width="50" height="50" relative="1" as="geometry">
            <mxPoint x="278" y="1390" as="sourcePoint" />
            <mxPoint x="-620" y="860" as="targetPoint" />
          </mxGeometry>
        </mxCell>
        <mxCell id="G6E1uZcaA4SNPLldOdaM-224" value="" style="endArrow=none;html=1;rounded=0;exitX=0.25;exitY=1;exitDx=0;exitDy=0;" edge="1" parent="1" source="G6E1uZcaA4SNPLldOdaM-21" target="G6E1uZcaA4SNPLldOdaM-222">
          <mxGeometry width="50" height="50" relative="1" as="geometry">
            <mxPoint x="-490" y="530" as="sourcePoint" />
            <mxPoint x="-620" y="770" as="targetPoint" />
          </mxGeometry>
        </mxCell>
        <mxCell id="G6E1uZcaA4SNPLldOdaM-225" value="&lt;u&gt;reserveid&lt;/u&gt;" style="ellipse;whiteSpace=wrap;html=1;" vertex="1" parent="1">
          <mxGeometry x="925" y="1290" width="120" height="50" as="geometry" />
        </mxCell>
        <mxCell id="G6E1uZcaA4SNPLldOdaM-226" value="user" style="ellipse;whiteSpace=wrap;html=1;" vertex="1" parent="1">
          <mxGeometry x="960" y="1360" width="120" height="50" as="geometry" />
        </mxCell>
        <mxCell id="G6E1uZcaA4SNPLldOdaM-227" value="Restaurent" style="ellipse;whiteSpace=wrap;html=1;" vertex="1" parent="1">
          <mxGeometry x="1020" y="1420" width="120" height="50" as="geometry" />
        </mxCell>
        <mxCell id="G6E1uZcaA4SNPLldOdaM-228" value="date" style="ellipse;whiteSpace=wrap;html=1;" vertex="1" parent="1">
          <mxGeometry x="1110" y="1470" width="120" height="50" as="geometry" />
        </mxCell>
        <mxCell id="G6E1uZcaA4SNPLldOdaM-229" value="time" style="ellipse;whiteSpace=wrap;html=1;" vertex="1" parent="1">
          <mxGeometry x="1210" y="1430" width="120" height="50" as="geometry" />
        </mxCell>
        <mxCell id="G6E1uZcaA4SNPLldOdaM-230" value="pplcount" style="ellipse;whiteSpace=wrap;html=1;" vertex="1" parent="1">
          <mxGeometry x="1340" y="1450" width="120" height="50" as="geometry" />
        </mxCell>
        <mxCell id="G6E1uZcaA4SNPLldOdaM-231" value="title" style="ellipse;whiteSpace=wrap;html=1;" vertex="1" parent="1">
          <mxGeometry x="1340" y="1370" width="120" height="50" as="geometry" />
        </mxCell>
        <mxCell id="G6E1uZcaA4SNPLldOdaM-232" value="tableno" style="ellipse;whiteSpace=wrap;html=1;" vertex="1" parent="1">
          <mxGeometry x="1340" y="1300" width="120" height="50" as="geometry" />
        </mxCell>
        <mxCell id="G6E1uZcaA4SNPLldOdaM-233" value="" style="endArrow=none;html=1;rounded=0;exitX=1;exitY=0.5;exitDx=0;exitDy=0;entryX=0;entryY=0.5;entryDx=0;entryDy=0;" edge="1" parent="1" source="G6E1uZcaA4SNPLldOdaM-225" target="G6E1uZcaA4SNPLldOdaM-72">
          <mxGeometry width="50" height="50" relative="1" as="geometry">
            <mxPoint x="613" y="1245" as="sourcePoint" />
            <mxPoint x="812" y="1388" as="targetPoint" />
          </mxGeometry>
        </mxCell>
        <mxCell id="G6E1uZcaA4SNPLldOdaM-234" value="" style="endArrow=none;html=1;rounded=0;entryX=0;entryY=0.833;entryDx=0;entryDy=0;entryPerimeter=0;" edge="1" parent="1" source="G6E1uZcaA4SNPLldOdaM-226" target="G6E1uZcaA4SNPLldOdaM-72">
          <mxGeometry width="50" height="50" relative="1" as="geometry">
            <mxPoint x="1055" y="1325" as="sourcePoint" />
            <mxPoint x="1160" y="1340" as="targetPoint" />
          </mxGeometry>
        </mxCell>
        <mxCell id="G6E1uZcaA4SNPLldOdaM-235" value="" style="endArrow=none;html=1;rounded=0;exitX=0.758;exitY=0.109;exitDx=0;exitDy=0;exitPerimeter=0;" edge="1" parent="1" source="G6E1uZcaA4SNPLldOdaM-227">
          <mxGeometry width="50" height="50" relative="1" as="geometry">
            <mxPoint x="1081" y="1382" as="sourcePoint" />
            <mxPoint x="1160" y="1360" as="targetPoint" />
          </mxGeometry>
        </mxCell>
        <mxCell id="G6E1uZcaA4SNPLldOdaM-236" value="" style="endArrow=none;html=1;rounded=0;exitX=0.5;exitY=0;exitDx=0;exitDy=0;entryX=0.25;entryY=1;entryDx=0;entryDy=0;" edge="1" parent="1" source="G6E1uZcaA4SNPLldOdaM-228" target="G6E1uZcaA4SNPLldOdaM-72">
          <mxGeometry width="50" height="50" relative="1" as="geometry">
            <mxPoint x="1121" y="1435" as="sourcePoint" />
            <mxPoint x="1170" y="1370" as="targetPoint" />
          </mxGeometry>
        </mxCell>
        <mxCell id="G6E1uZcaA4SNPLldOdaM-237" value="" style="endArrow=none;html=1;rounded=0;exitX=0;exitY=0;exitDx=0;exitDy=0;entryX=0.5;entryY=1;entryDx=0;entryDy=0;" edge="1" parent="1" source="G6E1uZcaA4SNPLldOdaM-229" target="G6E1uZcaA4SNPLldOdaM-72">
          <mxGeometry width="50" height="50" relative="1" as="geometry">
            <mxPoint x="1180" y="1480" as="sourcePoint" />
            <mxPoint x="1188" y="1370" as="targetPoint" />
          </mxGeometry>
        </mxCell>
        <mxCell id="G6E1uZcaA4SNPLldOdaM-238" value="" style="endArrow=none;html=1;rounded=0;entryX=0.75;entryY=1;entryDx=0;entryDy=0;" edge="1" parent="1" target="G6E1uZcaA4SNPLldOdaM-72">
          <mxGeometry width="50" height="50" relative="1" as="geometry">
            <mxPoint x="1360" y="1448" as="sourcePoint" />
            <mxPoint x="1215" y="1370" as="targetPoint" />
          </mxGeometry>
        </mxCell>
        <mxCell id="G6E1uZcaA4SNPLldOdaM-239" value="" style="endArrow=none;html=1;rounded=0;entryX=1;entryY=1;entryDx=0;entryDy=0;exitX=0;exitY=0.5;exitDx=0;exitDy=0;" edge="1" parent="1" source="G6E1uZcaA4SNPLldOdaM-231" target="G6E1uZcaA4SNPLldOdaM-72">
          <mxGeometry width="50" height="50" relative="1" as="geometry">
            <mxPoint x="1370" y="1458" as="sourcePoint" />
            <mxPoint x="1243" y="1370" as="targetPoint" />
          </mxGeometry>
        </mxCell>
        <mxCell id="G6E1uZcaA4SNPLldOdaM-240" value="" style="endArrow=none;html=1;rounded=0;entryX=1;entryY=0.5;entryDx=0;entryDy=0;exitX=-0.004;exitY=0.737;exitDx=0;exitDy=0;exitPerimeter=0;" edge="1" parent="1" source="G6E1uZcaA4SNPLldOdaM-232" target="G6E1uZcaA4SNPLldOdaM-72">
          <mxGeometry width="50" height="50" relative="1" as="geometry">
            <mxPoint x="1350" y="1405" as="sourcePoint" />
            <mxPoint x="1270" y="1370" as="targetPoint" />
          </mxGeometry>
        </mxCell>
        <mxCell id="G6E1uZcaA4SNPLldOdaM-241" value="Approve/ Cancel" style="rhombus;whiteSpace=wrap;html=1;" vertex="1" parent="1">
          <mxGeometry x="410" y="950" width="120" height="90" as="geometry" />
        </mxCell>
        <mxCell id="G6E1uZcaA4SNPLldOdaM-242" value="" style="endArrow=none;html=1;rounded=0;entryX=0.5;entryY=1;entryDx=0;entryDy=0;exitX=0;exitY=0;exitDx=0;exitDy=0;jumpStyle=arc;" edge="1" parent="1" source="G6E1uZcaA4SNPLldOdaM-72" target="G6E1uZcaA4SNPLldOdaM-241">
          <mxGeometry width="50" height="50" relative="1" as="geometry">
            <mxPoint x="530" y="1200" as="sourcePoint" />
            <mxPoint x="-220" y="980" as="targetPoint" />
          </mxGeometry>
        </mxCell>
        <mxCell id="G6E1uZcaA4SNPLldOdaM-243" value="" style="endArrow=none;html=1;rounded=0;entryX=1;entryY=1;entryDx=0;entryDy=0;exitX=0.5;exitY=0;exitDx=0;exitDy=0;jumpStyle=arc;" edge="1" parent="1" source="G6E1uZcaA4SNPLldOdaM-241" target="G6E1uZcaA4SNPLldOdaM-19">
          <mxGeometry width="50" height="50" relative="1" as="geometry">
            <mxPoint x="540" y="1210" as="sourcePoint" />
            <mxPoint x="-210" y="990" as="targetPoint" />
          </mxGeometry>
        </mxCell>
        <mxCell id="G6E1uZcaA4SNPLldOdaM-244" value="&lt;u&gt;reserveid&lt;/u&gt;" style="ellipse;whiteSpace=wrap;html=1;" vertex="1" parent="1">
          <mxGeometry x="790" y="900" width="120" height="50" as="geometry" />
        </mxCell>
        <mxCell id="G6E1uZcaA4SNPLldOdaM-245" value="trainID" style="ellipse;whiteSpace=wrap;html=1;" vertex="1" parent="1">
          <mxGeometry x="1090" y="1010" width="120" height="50" as="geometry" />
        </mxCell>
        <mxCell id="G6E1uZcaA4SNPLldOdaM-246" value="trainName" style="ellipse;whiteSpace=wrap;html=1;" vertex="1" parent="1">
          <mxGeometry x="1190" y="1050" width="120" height="50" as="geometry" />
        </mxCell>
        <mxCell id="G6E1uZcaA4SNPLldOdaM-247" value="price" style="ellipse;whiteSpace=wrap;html=1;" vertex="1" parent="1">
          <mxGeometry x="1270" y="990" width="120" height="50" as="geometry" />
        </mxCell>
        <mxCell id="G6E1uZcaA4SNPLldOdaM-248" value="NoofTickets" style="ellipse;whiteSpace=wrap;html=1;" vertex="1" parent="1">
          <mxGeometry x="1325" y="930" width="120" height="50" as="geometry" />
        </mxCell>
        <mxCell id="G6E1uZcaA4SNPLldOdaM-249" value="firstname" style="ellipse;whiteSpace=wrap;html=1;" vertex="1" parent="1">
          <mxGeometry x="1290" y="860" width="120" height="50" as="geometry" />
        </mxCell>
        <mxCell id="G6E1uZcaA4SNPLldOdaM-250" value="nationality" style="ellipse;whiteSpace=wrap;html=1;" vertex="1" parent="1">
          <mxGeometry x="1275" y="780" width="120" height="50" as="geometry" />
        </mxCell>
        <mxCell id="G6E1uZcaA4SNPLldOdaM-251" value="IDnumber" style="ellipse;whiteSpace=wrap;html=1;" vertex="1" parent="1">
          <mxGeometry x="820" y="970" width="120" height="50" as="geometry" />
        </mxCell>
        <mxCell id="G6E1uZcaA4SNPLldOdaM-252" value="&lt;u&gt;phoneNo&lt;/u&gt;" style="ellipse;whiteSpace=wrap;html=1;" vertex="1" parent="1">
          <mxGeometry x="1010" y="960" width="120" height="50" as="geometry" />
        </mxCell>
        <mxCell id="G6E1uZcaA4SNPLldOdaM-253" value="email" style="ellipse;whiteSpace=wrap;html=1;" vertex="1" parent="1">
          <mxGeometry x="1180" y="735" width="120" height="50" as="geometry" />
        </mxCell>
        <mxCell id="G6E1uZcaA4SNPLldOdaM-254" value="" style="endArrow=none;html=1;rounded=0;exitX=0.974;exitY=0.207;exitDx=0;exitDy=0;entryX=0.005;entryY=0.415;entryDx=0;entryDy=0;entryPerimeter=0;exitPerimeter=0;jumpStyle=arc;" edge="1" parent="1" source="G6E1uZcaA4SNPLldOdaM-244" target="G6E1uZcaA4SNPLldOdaM-73">
          <mxGeometry width="50" height="50" relative="1" as="geometry">
            <mxPoint x="1055" y="1325" as="sourcePoint" />
            <mxPoint x="1160" y="1340" as="targetPoint" />
          </mxGeometry>
        </mxCell>
        <mxCell id="G6E1uZcaA4SNPLldOdaM-255" value="" style="endArrow=none;html=1;rounded=0;exitX=0.929;exitY=0.225;exitDx=0;exitDy=0;entryX=0;entryY=0.5;entryDx=0;entryDy=0;exitPerimeter=0;jumpStyle=arc;" edge="1" parent="1" source="G6E1uZcaA4SNPLldOdaM-251" target="G6E1uZcaA4SNPLldOdaM-73">
          <mxGeometry width="50" height="50" relative="1" as="geometry">
            <mxPoint x="1057" y="880" as="sourcePoint" />
            <mxPoint x="1141" y="865" as="targetPoint" />
          </mxGeometry>
        </mxCell>
        <mxCell id="G6E1uZcaA4SNPLldOdaM-256" value="" style="endArrow=none;html=1;rounded=0;entryX=-0.003;entryY=0.87;entryDx=0;entryDy=0;entryPerimeter=0;" edge="1" parent="1" source="G6E1uZcaA4SNPLldOdaM-252" target="G6E1uZcaA4SNPLldOdaM-73">
          <mxGeometry width="50" height="50" relative="1" as="geometry">
            <mxPoint x="961" y="971" as="sourcePoint" />
            <mxPoint x="1140" y="870" as="targetPoint" />
          </mxGeometry>
        </mxCell>
        <mxCell id="G6E1uZcaA4SNPLldOdaM-257" value="" style="endArrow=none;html=1;rounded=0;entryX=0.25;entryY=1;entryDx=0;entryDy=0;exitX=0.667;exitY=0;exitDx=0;exitDy=0;exitPerimeter=0;" edge="1" parent="1" source="G6E1uZcaA4SNPLldOdaM-245" target="G6E1uZcaA4SNPLldOdaM-73">
          <mxGeometry width="50" height="50" relative="1" as="geometry">
            <mxPoint x="1094" y="971" as="sourcePoint" />
            <mxPoint x="1140" y="892" as="targetPoint" />
          </mxGeometry>
        </mxCell>
        <mxCell id="G6E1uZcaA4SNPLldOdaM-258" value="" style="endArrow=none;html=1;rounded=0;entryX=0.5;entryY=1;entryDx=0;entryDy=0;exitX=0.5;exitY=0;exitDx=0;exitDy=0;" edge="1" parent="1" source="G6E1uZcaA4SNPLldOdaM-246" target="G6E1uZcaA4SNPLldOdaM-73">
          <mxGeometry width="50" height="50" relative="1" as="geometry">
            <mxPoint x="1180" y="1020" as="sourcePoint" />
            <mxPoint x="1168" y="900" as="targetPoint" />
          </mxGeometry>
        </mxCell>
        <mxCell id="G6E1uZcaA4SNPLldOdaM-259" value="" style="endArrow=none;html=1;rounded=0;entryX=0.683;entryY=1.021;entryDx=0;entryDy=0;entryPerimeter=0;" edge="1" parent="1" source="G6E1uZcaA4SNPLldOdaM-247" target="G6E1uZcaA4SNPLldOdaM-73">
          <mxGeometry width="50" height="50" relative="1" as="geometry">
            <mxPoint x="1260" y="1060" as="sourcePoint" />
            <mxPoint x="1195" y="900" as="targetPoint" />
          </mxGeometry>
        </mxCell>
        <mxCell id="G6E1uZcaA4SNPLldOdaM-260" value="" style="endArrow=none;html=1;rounded=0;entryX=1;entryY=1;entryDx=0;entryDy=0;exitX=0.016;exitY=0.371;exitDx=0;exitDy=0;exitPerimeter=0;" edge="1" parent="1" source="G6E1uZcaA4SNPLldOdaM-248" target="G6E1uZcaA4SNPLldOdaM-73">
          <mxGeometry width="50" height="50" relative="1" as="geometry">
            <mxPoint x="1317" y="1002" as="sourcePoint" />
            <mxPoint x="1215" y="901" as="targetPoint" />
          </mxGeometry>
        </mxCell>
        <mxCell id="G6E1uZcaA4SNPLldOdaM-261" value="" style="endArrow=none;html=1;rounded=0;entryX=1;entryY=0.75;entryDx=0;entryDy=0;exitX=0;exitY=0.5;exitDx=0;exitDy=0;" edge="1" parent="1" source="G6E1uZcaA4SNPLldOdaM-249" target="G6E1uZcaA4SNPLldOdaM-73">
          <mxGeometry width="50" height="50" relative="1" as="geometry">
            <mxPoint x="1337" y="959" as="sourcePoint" />
            <mxPoint x="1250" y="900" as="targetPoint" />
          </mxGeometry>
        </mxCell>
        <mxCell id="G6E1uZcaA4SNPLldOdaM-262" value="" style="endArrow=none;html=1;rounded=0;entryX=1;entryY=0.25;entryDx=0;entryDy=0;exitX=0.061;exitY=0.735;exitDx=0;exitDy=0;exitPerimeter=0;" edge="1" parent="1" source="G6E1uZcaA4SNPLldOdaM-250" target="G6E1uZcaA4SNPLldOdaM-73">
          <mxGeometry width="50" height="50" relative="1" as="geometry">
            <mxPoint x="1300" y="895" as="sourcePoint" />
            <mxPoint x="1250" y="885" as="targetPoint" />
          </mxGeometry>
        </mxCell>
        <mxCell id="G6E1uZcaA4SNPLldOdaM-263" value="" style="endArrow=none;html=1;rounded=0;exitX=0.5;exitY=1;exitDx=0;exitDy=0;" edge="1" parent="1" source="G6E1uZcaA4SNPLldOdaM-253" target="G6E1uZcaA4SNPLldOdaM-73">
          <mxGeometry width="50" height="50" relative="1" as="geometry">
            <mxPoint x="1292" y="827" as="sourcePoint" />
            <mxPoint x="1250" y="855" as="targetPoint" />
          </mxGeometry>
        </mxCell>
        <mxCell id="G6E1uZcaA4SNPLldOdaM-264" value="Approve/ Cancel" style="rhombus;whiteSpace=wrap;html=1;" vertex="1" parent="1">
          <mxGeometry x="515" y="820" width="120" height="90" as="geometry" />
        </mxCell>
        <mxCell id="G6E1uZcaA4SNPLldOdaM-265" value="" style="endArrow=none;html=1;rounded=0;entryX=0.5;entryY=1;entryDx=0;entryDy=0;exitX=0;exitY=0.25;exitDx=0;exitDy=0;jumpStyle=arc;" edge="1" parent="1" source="G6E1uZcaA4SNPLldOdaM-73" target="G6E1uZcaA4SNPLldOdaM-264">
          <mxGeometry width="50" height="50" relative="1" as="geometry">
            <mxPoint x="1160" y="1310" as="sourcePoint" />
            <mxPoint x="480" y="1050" as="targetPoint" />
          </mxGeometry>
        </mxCell>
        <mxCell id="G6E1uZcaA4SNPLldOdaM-266" value="" style="endArrow=none;html=1;rounded=0;entryX=0.75;entryY=1;entryDx=0;entryDy=0;exitX=0;exitY=0.5;exitDx=0;exitDy=0;jumpStyle=arc;" edge="1" parent="1" source="G6E1uZcaA4SNPLldOdaM-264" target="G6E1uZcaA4SNPLldOdaM-24">
          <mxGeometry width="50" height="50" relative="1" as="geometry">
            <mxPoint x="1170" y="1320" as="sourcePoint" />
            <mxPoint x="490" y="1060" as="targetPoint" />
          </mxGeometry>
        </mxCell>
        <mxCell id="G6E1uZcaA4SNPLldOdaM-267" value="&lt;u&gt;reserveid&lt;/u&gt;" style="ellipse;whiteSpace=wrap;html=1;" vertex="1" parent="1">
          <mxGeometry x="1070" y="635" width="120" height="50" as="geometry" />
        </mxCell>
        <mxCell id="G6E1uZcaA4SNPLldOdaM-268" value="userID" style="ellipse;whiteSpace=wrap;html=1;" vertex="1" parent="1">
          <mxGeometry x="1220" y="660" width="120" height="50" as="geometry" />
        </mxCell>
        <mxCell id="G6E1uZcaA4SNPLldOdaM-269" value="date" style="ellipse;whiteSpace=wrap;html=1;" vertex="1" parent="1">
          <mxGeometry x="1360" y="640" width="120" height="50" as="geometry" />
        </mxCell>
        <mxCell id="G6E1uZcaA4SNPLldOdaM-270" value="time" style="ellipse;whiteSpace=wrap;html=1;" vertex="1" parent="1">
          <mxGeometry x="1390" y="565" width="120" height="50" as="geometry" />
        </mxCell>
        <mxCell id="G6E1uZcaA4SNPLldOdaM-271" value="activityID" style="ellipse;whiteSpace=wrap;html=1;" vertex="1" parent="1">
          <mxGeometry x="1370" y="490" width="120" height="50" as="geometry" />
        </mxCell>
        <mxCell id="G6E1uZcaA4SNPLldOdaM-272" value="Status" style="ellipse;whiteSpace=wrap;html=1;" vertex="1" parent="1">
          <mxGeometry x="1265" y="440" width="120" height="50" as="geometry" />
        </mxCell>
        <mxCell id="G6E1uZcaA4SNPLldOdaM-273" value="" style="endArrow=none;html=1;rounded=0;exitX=0.14;exitY=1.008;exitDx=0;exitDy=0;exitPerimeter=0;" edge="1" parent="1" source="G6E1uZcaA4SNPLldOdaM-74" target="G6E1uZcaA4SNPLldOdaM-267">
          <mxGeometry width="50" height="50" relative="1" as="geometry">
            <mxPoint x="1250" y="795" as="sourcePoint" />
            <mxPoint x="1217" y="840" as="targetPoint" />
          </mxGeometry>
        </mxCell>
        <mxCell id="G6E1uZcaA4SNPLldOdaM-274" value="" style="endArrow=none;html=1;rounded=0;exitX=0.417;exitY=1.04;exitDx=0;exitDy=0;exitPerimeter=0;entryX=0.252;entryY=0.048;entryDx=0;entryDy=0;entryPerimeter=0;" edge="1" parent="1" source="G6E1uZcaA4SNPLldOdaM-74" target="G6E1uZcaA4SNPLldOdaM-268">
          <mxGeometry width="50" height="50" relative="1" as="geometry">
            <mxPoint x="1195" y="590" as="sourcePoint" />
            <mxPoint x="1157" y="646" as="targetPoint" />
          </mxGeometry>
        </mxCell>
        <mxCell id="G6E1uZcaA4SNPLldOdaM-275" value="" style="endArrow=none;html=1;rounded=0;exitX=0.75;exitY=1;exitDx=0;exitDy=0;entryX=0.053;entryY=0.333;entryDx=0;entryDy=0;entryPerimeter=0;" edge="1" parent="1" source="G6E1uZcaA4SNPLldOdaM-74" target="G6E1uZcaA4SNPLldOdaM-269">
          <mxGeometry width="50" height="50" relative="1" as="geometry">
            <mxPoint x="1226" y="592" as="sourcePoint" />
            <mxPoint x="1260" y="672" as="targetPoint" />
          </mxGeometry>
        </mxCell>
        <mxCell id="G6E1uZcaA4SNPLldOdaM-276" value="" style="endArrow=none;html=1;rounded=0;exitX=0.945;exitY=1.056;exitDx=0;exitDy=0;exitPerimeter=0;entryX=0.01;entryY=0.729;entryDx=0;entryDy=0;entryPerimeter=0;" edge="1" parent="1" source="G6E1uZcaA4SNPLldOdaM-74" target="G6E1uZcaA4SNPLldOdaM-270">
          <mxGeometry width="50" height="50" relative="1" as="geometry">
            <mxPoint x="1252" y="594" as="sourcePoint" />
            <mxPoint x="1376" y="667" as="targetPoint" />
          </mxGeometry>
        </mxCell>
        <mxCell id="G6E1uZcaA4SNPLldOdaM-277" value="" style="endArrow=none;html=1;rounded=0;exitX=1;exitY=0.5;exitDx=0;exitDy=0;entryX=0.033;entryY=0.762;entryDx=0;entryDy=0;entryPerimeter=0;" edge="1" parent="1" source="G6E1uZcaA4SNPLldOdaM-74" target="G6E1uZcaA4SNPLldOdaM-271">
          <mxGeometry width="50" height="50" relative="1" as="geometry">
            <mxPoint x="1284" y="593" as="sourcePoint" />
            <mxPoint x="1401" y="611" as="targetPoint" />
          </mxGeometry>
        </mxCell>
        <mxCell id="G6E1uZcaA4SNPLldOdaM-278" value="" style="endArrow=none;html=1;rounded=0;exitX=0.75;exitY=0;exitDx=0;exitDy=0;entryX=0;entryY=1;entryDx=0;entryDy=0;" edge="1" parent="1" source="G6E1uZcaA4SNPLldOdaM-74" target="G6E1uZcaA4SNPLldOdaM-272">
          <mxGeometry width="50" height="50" relative="1" as="geometry">
            <mxPoint x="1290" y="560" as="sourcePoint" />
            <mxPoint x="1384" y="538" as="targetPoint" />
          </mxGeometry>
        </mxCell>
        <mxCell id="G6E1uZcaA4SNPLldOdaM-279" value="" style="endArrow=none;html=1;rounded=0;exitX=0;exitY=0;exitDx=0;exitDy=0;jumpStyle=arc;entryX=1;entryY=0.5;entryDx=0;entryDy=0;fontStyle=1" edge="1" parent="1" source="G6E1uZcaA4SNPLldOdaM-74" target="G6E1uZcaA4SNPLldOdaM-280">
          <mxGeometry width="50" height="50" relative="1" as="geometry">
            <mxPoint x="1140" y="855" as="sourcePoint" />
            <mxPoint x="480" y="440" as="targetPoint" />
          </mxGeometry>
        </mxCell>
        <mxCell id="G6E1uZcaA4SNPLldOdaM-280" value="Approve/ Cancel" style="rhombus;whiteSpace=wrap;html=1;" vertex="1" parent="1">
          <mxGeometry x="360" y="390" width="120" height="90" as="geometry" />
        </mxCell>
        <mxCell id="G6E1uZcaA4SNPLldOdaM-281" value="" style="endArrow=none;html=1;rounded=0;exitX=0;exitY=0.5;exitDx=0;exitDy=0;jumpStyle=arc;entryX=1;entryY=0.75;entryDx=0;entryDy=0;" edge="1" parent="1" source="G6E1uZcaA4SNPLldOdaM-280" target="G6E1uZcaA4SNPLldOdaM-25">
          <mxGeometry width="50" height="50" relative="1" as="geometry">
            <mxPoint x="1180" y="530" as="sourcePoint" />
            <mxPoint x="490" y="445" as="targetPoint" />
          </mxGeometry>
        </mxCell>
        <mxCell id="G6E1uZcaA4SNPLldOdaM-283" value="&lt;u&gt;VehicleID&lt;/u&gt;" style="ellipse;whiteSpace=wrap;html=1;" vertex="1" parent="1">
          <mxGeometry x="1470" y="870" width="120" height="50" as="geometry" />
        </mxCell>
        <mxCell id="G6E1uZcaA4SNPLldOdaM-284" value="ownerName" style="ellipse;whiteSpace=wrap;html=1;" vertex="1" parent="1">
          <mxGeometry x="1470" y="950" width="120" height="50" as="geometry" />
        </mxCell>
        <mxCell id="G6E1uZcaA4SNPLldOdaM-285" value="brand" style="ellipse;whiteSpace=wrap;html=1;" vertex="1" parent="1">
          <mxGeometry x="1490" y="1030" width="120" height="50" as="geometry" />
        </mxCell>
        <mxCell id="G6E1uZcaA4SNPLldOdaM-286" value="type" style="ellipse;whiteSpace=wrap;html=1;" vertex="1" parent="1">
          <mxGeometry x="1670" y="1160" width="120" height="50" as="geometry" />
        </mxCell>
        <mxCell id="G6E1uZcaA4SNPLldOdaM-287" value="Model" style="ellipse;whiteSpace=wrap;html=1;" vertex="1" parent="1">
          <mxGeometry x="1560" y="1110" width="120" height="50" as="geometry" />
        </mxCell>
        <mxCell id="G6E1uZcaA4SNPLldOdaM-289" value="numeber" style="ellipse;whiteSpace=wrap;html=1;" vertex="1" parent="1">
          <mxGeometry x="1740" y="1090" width="120" height="50" as="geometry" />
        </mxCell>
        <mxCell id="G6E1uZcaA4SNPLldOdaM-290" value="capacity" style="ellipse;whiteSpace=wrap;html=1;" vertex="1" parent="1">
          <mxGeometry x="1910" y="1140" width="120" height="50" as="geometry" />
        </mxCell>
        <mxCell id="G6E1uZcaA4SNPLldOdaM-291" value="fueltype" style="ellipse;whiteSpace=wrap;html=1;" vertex="1" parent="1">
          <mxGeometry x="1730" y="810" width="120" height="50" as="geometry" />
        </mxCell>
        <mxCell id="G6E1uZcaA4SNPLldOdaM-292" value="price" style="ellipse;whiteSpace=wrap;html=1;" vertex="1" parent="1">
          <mxGeometry x="1810" y="870" width="120" height="50" as="geometry" />
        </mxCell>
        <mxCell id="G6E1uZcaA4SNPLldOdaM-294" value="insurance_img" style="ellipse;shape=doubleEllipse;margin=3;whiteSpace=wrap;html=1;align=center;" vertex="1" parent="1">
          <mxGeometry x="1860" y="955" width="100" height="40" as="geometry" />
        </mxCell>
        <mxCell id="G6E1uZcaA4SNPLldOdaM-295" value="vehicle_img" style="ellipse;shape=doubleEllipse;margin=3;whiteSpace=wrap;html=1;align=center;" vertex="1" parent="1">
          <mxGeometry x="1890" y="1015" width="100" height="40" as="geometry" />
        </mxCell>
        <mxCell id="G6E1uZcaA4SNPLldOdaM-296" value="location" style="ellipse;whiteSpace=wrap;html=1;" vertex="1" parent="1">
          <mxGeometry x="1900" y="1070" width="120" height="50" as="geometry" />
        </mxCell>
        <mxCell id="G6E1uZcaA4SNPLldOdaM-297" value="" style="endArrow=none;html=1;rounded=0;entryX=1;entryY=0.5;entryDx=0;entryDy=0;exitX=0;exitY=0.5;exitDx=0;exitDy=0;" edge="1" parent="1" source="G6E1uZcaA4SNPLldOdaM-140" target="G6E1uZcaA4SNPLldOdaM-283">
          <mxGeometry width="50" height="50" relative="1" as="geometry">
            <mxPoint x="1350" y="1347" as="sourcePoint" />
            <mxPoint x="1270" y="1340" as="targetPoint" />
          </mxGeometry>
        </mxCell>
        <mxCell id="G6E1uZcaA4SNPLldOdaM-298" value="" style="endArrow=none;html=1;rounded=0;entryX=1;entryY=0.5;entryDx=0;entryDy=0;exitX=0;exitY=0.75;exitDx=0;exitDy=0;" edge="1" parent="1" source="G6E1uZcaA4SNPLldOdaM-140" target="G6E1uZcaA4SNPLldOdaM-284">
          <mxGeometry width="50" height="50" relative="1" as="geometry">
            <mxPoint x="1700" y="965" as="sourcePoint" />
            <mxPoint x="1600" y="905" as="targetPoint" />
          </mxGeometry>
        </mxCell>
        <mxCell id="G6E1uZcaA4SNPLldOdaM-299" value="" style="endArrow=none;html=1;rounded=0;entryX=0.976;entryY=0.342;entryDx=0;entryDy=0;exitX=0;exitY=1;exitDx=0;exitDy=0;entryPerimeter=0;" edge="1" parent="1" source="G6E1uZcaA4SNPLldOdaM-140" target="G6E1uZcaA4SNPLldOdaM-285">
          <mxGeometry width="50" height="50" relative="1" as="geometry">
            <mxPoint x="1700" y="975" as="sourcePoint" />
            <mxPoint x="1600" y="985" as="targetPoint" />
          </mxGeometry>
        </mxCell>
        <mxCell id="G6E1uZcaA4SNPLldOdaM-300" value="" style="endArrow=none;html=1;rounded=0;entryX=0.716;entryY=0.036;entryDx=0;entryDy=0;exitX=0.25;exitY=1;exitDx=0;exitDy=0;entryPerimeter=0;" edge="1" parent="1" source="G6E1uZcaA4SNPLldOdaM-140" target="G6E1uZcaA4SNPLldOdaM-287">
          <mxGeometry width="50" height="50" relative="1" as="geometry">
            <mxPoint x="1700" y="985" as="sourcePoint" />
            <mxPoint x="1617" y="1057" as="targetPoint" />
          </mxGeometry>
        </mxCell>
        <mxCell id="G6E1uZcaA4SNPLldOdaM-301" value="" style="endArrow=none;html=1;rounded=0;entryX=0.5;entryY=0;entryDx=0;entryDy=0;exitX=0.383;exitY=1.038;exitDx=0;exitDy=0;exitPerimeter=0;" edge="1" parent="1" source="G6E1uZcaA4SNPLldOdaM-140" target="G6E1uZcaA4SNPLldOdaM-286">
          <mxGeometry width="50" height="50" relative="1" as="geometry">
            <mxPoint x="1725" y="985" as="sourcePoint" />
            <mxPoint x="1656" y="1122" as="targetPoint" />
          </mxGeometry>
        </mxCell>
        <mxCell id="G6E1uZcaA4SNPLldOdaM-302" value="" style="endArrow=none;html=1;rounded=0;entryX=0.388;entryY=-0.002;entryDx=0;entryDy=0;exitX=0.5;exitY=1;exitDx=0;exitDy=0;entryPerimeter=0;" edge="1" parent="1" source="G6E1uZcaA4SNPLldOdaM-140" target="G6E1uZcaA4SNPLldOdaM-289">
          <mxGeometry width="50" height="50" relative="1" as="geometry">
            <mxPoint x="1738" y="987" as="sourcePoint" />
            <mxPoint x="1740" y="1170" as="targetPoint" />
          </mxGeometry>
        </mxCell>
        <mxCell id="G6E1uZcaA4SNPLldOdaM-303" value="" style="endArrow=none;html=1;rounded=0;entryX=0.015;entryY=0.254;entryDx=0;entryDy=0;exitX=0.75;exitY=1;exitDx=0;exitDy=0;entryPerimeter=0;" edge="1" parent="1" source="G6E1uZcaA4SNPLldOdaM-140" target="G6E1uZcaA4SNPLldOdaM-290">
          <mxGeometry width="50" height="50" relative="1" as="geometry">
            <mxPoint x="1750" y="985" as="sourcePoint" />
            <mxPoint x="1847" y="1212" as="targetPoint" />
          </mxGeometry>
        </mxCell>
        <mxCell id="G6E1uZcaA4SNPLldOdaM-304" value="" style="endArrow=none;html=1;rounded=0;entryX=0.005;entryY=0.307;entryDx=0;entryDy=0;exitX=1;exitY=1;exitDx=0;exitDy=0;entryPerimeter=0;" edge="1" parent="1" source="G6E1uZcaA4SNPLldOdaM-140" target="G6E1uZcaA4SNPLldOdaM-296">
          <mxGeometry width="50" height="50" relative="1" as="geometry">
            <mxPoint x="1775" y="985" as="sourcePoint" />
            <mxPoint x="1922" y="1188" as="targetPoint" />
          </mxGeometry>
        </mxCell>
        <mxCell id="G6E1uZcaA4SNPLldOdaM-305" value="" style="endArrow=none;html=1;rounded=0;entryX=0;entryY=0.5;entryDx=0;entryDy=0;exitX=1;exitY=0.75;exitDx=0;exitDy=0;" edge="1" parent="1" source="G6E1uZcaA4SNPLldOdaM-140" target="G6E1uZcaA4SNPLldOdaM-295">
          <mxGeometry width="50" height="50" relative="1" as="geometry">
            <mxPoint x="1800" y="985" as="sourcePoint" />
            <mxPoint x="1901" y="1125" as="targetPoint" />
          </mxGeometry>
        </mxCell>
        <mxCell id="G6E1uZcaA4SNPLldOdaM-306" value="" style="endArrow=none;html=1;rounded=0;entryX=0;entryY=0.5;entryDx=0;entryDy=0;exitX=1;exitY=0.5;exitDx=0;exitDy=0;" edge="1" parent="1" source="G6E1uZcaA4SNPLldOdaM-140" target="G6E1uZcaA4SNPLldOdaM-294">
          <mxGeometry width="50" height="50" relative="1" as="geometry">
            <mxPoint x="1800" y="975" as="sourcePoint" />
            <mxPoint x="1930" y="1065" as="targetPoint" />
          </mxGeometry>
        </mxCell>
        <mxCell id="G6E1uZcaA4SNPLldOdaM-307" value="" style="endArrow=none;html=1;rounded=0;entryX=0;entryY=1;entryDx=0;entryDy=0;exitX=1;exitY=0.25;exitDx=0;exitDy=0;" edge="1" parent="1" source="G6E1uZcaA4SNPLldOdaM-140" target="G6E1uZcaA4SNPLldOdaM-292">
          <mxGeometry width="50" height="50" relative="1" as="geometry">
            <mxPoint x="1800" y="965" as="sourcePoint" />
            <mxPoint x="1890" y="1000" as="targetPoint" />
          </mxGeometry>
        </mxCell>
        <mxCell id="G6E1uZcaA4SNPLldOdaM-308" value="" style="endArrow=none;html=1;rounded=0;entryX=0.417;entryY=1.1;entryDx=0;entryDy=0;exitX=0.75;exitY=0;exitDx=0;exitDy=0;entryPerimeter=0;" edge="1" parent="1" source="G6E1uZcaA4SNPLldOdaM-140" target="G6E1uZcaA4SNPLldOdaM-291">
          <mxGeometry width="50" height="50" relative="1" as="geometry">
            <mxPoint x="1800" y="955" as="sourcePoint" />
            <mxPoint x="1837" y="923" as="targetPoint" />
          </mxGeometry>
        </mxCell>
        <mxCell id="G6E1uZcaA4SNPLldOdaM-309" value="vehicle_owner" style="rounded=0;whiteSpace=wrap;html=1;" vertex="1" parent="1">
          <mxGeometry x="1650" y="637.5" width="100" height="40" as="geometry" />
        </mxCell>
        <mxCell id="G6E1uZcaA4SNPLldOdaM-310" value="" style="endArrow=none;html=1;rounded=0;entryX=0.5;entryY=1;entryDx=0;entryDy=0;exitX=0.5;exitY=0;exitDx=0;exitDy=0;" edge="1" parent="1" source="G6E1uZcaA4SNPLldOdaM-311" target="G6E1uZcaA4SNPLldOdaM-309">
          <mxGeometry width="50" height="50" relative="1" as="geometry">
            <mxPoint x="1630" y="750" as="sourcePoint" />
            <mxPoint x="1600" y="905" as="targetPoint" />
          </mxGeometry>
        </mxCell>
        <mxCell id="G6E1uZcaA4SNPLldOdaM-311" value="Add" style="rhombus;whiteSpace=wrap;html=1;" vertex="1" parent="1">
          <mxGeometry x="1560" y="745" width="110" height="75" as="geometry" />
        </mxCell>
        <mxCell id="G6E1uZcaA4SNPLldOdaM-312" value="" style="endArrow=none;html=1;rounded=0;entryX=0.25;entryY=0;entryDx=0;entryDy=0;exitX=0.5;exitY=1;exitDx=0;exitDy=0;" edge="1" parent="1" source="G6E1uZcaA4SNPLldOdaM-311" target="G6E1uZcaA4SNPLldOdaM-140">
          <mxGeometry width="50" height="50" relative="1" as="geometry">
            <mxPoint x="1625" y="755" as="sourcePoint" />
            <mxPoint x="1710" y="688" as="targetPoint" />
          </mxGeometry>
        </mxCell>
        <mxCell id="G6E1uZcaA4SNPLldOdaM-313" value="Add" style="rhombus;whiteSpace=wrap;html=1;" vertex="1" parent="1">
          <mxGeometry x="1570" y="352.5" width="110" height="75" as="geometry" />
        </mxCell>
        <mxCell id="G6E1uZcaA4SNPLldOdaM-314" value="" style="endArrow=none;html=1;rounded=0;entryX=1;entryY=0.25;entryDx=0;entryDy=0;exitX=0;exitY=0.5;exitDx=0;exitDy=0;" edge="1" parent="1" source="G6E1uZcaA4SNPLldOdaM-313" target="G6E1uZcaA4SNPLldOdaM-141">
          <mxGeometry width="50" height="50" relative="1" as="geometry">
            <mxPoint x="1950" y="618" as="sourcePoint" />
            <mxPoint x="1860" y="620" as="targetPoint" />
          </mxGeometry>
        </mxCell>
        <mxCell id="G6E1uZcaA4SNPLldOdaM-315" value="&lt;u&gt;id&lt;/u&gt;" style="ellipse;whiteSpace=wrap;html=1;" vertex="1" parent="1">
          <mxGeometry x="1850" y="280" width="120" height="50" as="geometry" />
        </mxCell>
        <mxCell id="G6E1uZcaA4SNPLldOdaM-316" value="userID" style="ellipse;whiteSpace=wrap;html=1;" vertex="1" parent="1">
          <mxGeometry x="2000" y="250" width="120" height="50" as="geometry" />
        </mxCell>
        <mxCell id="G6E1uZcaA4SNPLldOdaM-317" value="name" style="ellipse;whiteSpace=wrap;html=1;" vertex="1" parent="1">
          <mxGeometry x="1750" y="450" width="120" height="50" as="geometry" />
        </mxCell>
        <mxCell id="G6E1uZcaA4SNPLldOdaM-318" value="location" style="ellipse;whiteSpace=wrap;html=1;" vertex="1" parent="1">
          <mxGeometry x="1860" y="495" width="120" height="50" as="geometry" />
        </mxCell>
        <mxCell id="G6E1uZcaA4SNPLldOdaM-319" value="date" style="ellipse;whiteSpace=wrap;html=1;" vertex="1" parent="1">
          <mxGeometry x="1990" y="500" width="120" height="50" as="geometry" />
        </mxCell>
        <mxCell id="G6E1uZcaA4SNPLldOdaM-321" value="time" style="ellipse;whiteSpace=wrap;html=1;" vertex="1" parent="1">
          <mxGeometry x="2090" y="460" width="120" height="50" as="geometry" />
        </mxCell>
        <mxCell id="G6E1uZcaA4SNPLldOdaM-322" value="type" style="ellipse;whiteSpace=wrap;html=1;" vertex="1" parent="1">
          <mxGeometry x="2110" y="400" width="120" height="50" as="geometry" />
        </mxCell>
        <mxCell id="G6E1uZcaA4SNPLldOdaM-323" value="description" style="ellipse;whiteSpace=wrap;html=1;" vertex="1" parent="1">
          <mxGeometry x="2110" y="335" width="120" height="50" as="geometry" />
        </mxCell>
        <mxCell id="G6E1uZcaA4SNPLldOdaM-324" value="img" style="ellipse;whiteSpace=wrap;html=1;" vertex="1" parent="1">
          <mxGeometry x="2125" y="260" width="120" height="50" as="geometry" />
        </mxCell>
        <mxCell id="G6E1uZcaA4SNPLldOdaM-325" value="status" style="ellipse;whiteSpace=wrap;html=1;" vertex="1" parent="1">
          <mxGeometry x="1700" y="290" width="120" height="50" as="geometry" />
        </mxCell>
        <mxCell id="G6E1uZcaA4SNPLldOdaM-326" value="activity" style="rounded=0;whiteSpace=wrap;html=1;" vertex="1" parent="1">
          <mxGeometry x="1900" y="385" width="100" height="40" as="geometry" />
        </mxCell>
        <mxCell id="G6E1uZcaA4SNPLldOdaM-327" value="" style="endArrow=none;html=1;rounded=0;entryX=0.899;entryY=0.825;entryDx=0;entryDy=0;exitX=0;exitY=0.5;exitDx=0;exitDy=0;entryPerimeter=0;" edge="1" parent="1" source="G6E1uZcaA4SNPLldOdaM-326" target="G6E1uZcaA4SNPLldOdaM-325">
          <mxGeometry width="50" height="50" relative="1" as="geometry">
            <mxPoint x="1950" y="618" as="sourcePoint" />
            <mxPoint x="1860" y="620" as="targetPoint" />
          </mxGeometry>
        </mxCell>
        <mxCell id="G6E1uZcaA4SNPLldOdaM-328" value="" style="endArrow=none;html=1;rounded=0;entryX=0.38;entryY=1.05;entryDx=0;entryDy=0;entryPerimeter=0;" edge="1" parent="1" source="G6E1uZcaA4SNPLldOdaM-326" target="G6E1uZcaA4SNPLldOdaM-315">
          <mxGeometry width="50" height="50" relative="1" as="geometry">
            <mxPoint x="1910" y="415" as="sourcePoint" />
            <mxPoint x="1818" y="341" as="targetPoint" />
          </mxGeometry>
        </mxCell>
        <mxCell id="G6E1uZcaA4SNPLldOdaM-329" value="" style="endArrow=none;html=1;rounded=0;entryX=0;entryY=1;entryDx=0;entryDy=0;exitX=0.7;exitY=-0.125;exitDx=0;exitDy=0;exitPerimeter=0;" edge="1" parent="1" source="G6E1uZcaA4SNPLldOdaM-326" target="G6E1uZcaA4SNPLldOdaM-316">
          <mxGeometry width="50" height="50" relative="1" as="geometry">
            <mxPoint x="1945" y="395" as="sourcePoint" />
            <mxPoint x="1906" y="343" as="targetPoint" />
          </mxGeometry>
        </mxCell>
        <mxCell id="G6E1uZcaA4SNPLldOdaM-330" value="" style="endArrow=none;html=1;rounded=0;entryX=0.099;entryY=0.792;entryDx=0;entryDy=0;exitX=1;exitY=0;exitDx=0;exitDy=0;entryPerimeter=0;" edge="1" parent="1" source="G6E1uZcaA4SNPLldOdaM-326" target="G6E1uZcaA4SNPLldOdaM-324">
          <mxGeometry width="50" height="50" relative="1" as="geometry">
            <mxPoint x="1980" y="390" as="sourcePoint" />
            <mxPoint x="2027" y="303" as="targetPoint" />
          </mxGeometry>
        </mxCell>
        <mxCell id="G6E1uZcaA4SNPLldOdaM-331" value="" style="endArrow=none;html=1;rounded=0;entryX=0;entryY=0.5;entryDx=0;entryDy=0;exitX=1.008;exitY=0.365;exitDx=0;exitDy=0;exitPerimeter=0;" edge="1" parent="1" source="G6E1uZcaA4SNPLldOdaM-326" target="G6E1uZcaA4SNPLldOdaM-323">
          <mxGeometry width="50" height="50" relative="1" as="geometry">
            <mxPoint x="2010" y="395" as="sourcePoint" />
            <mxPoint x="2147" y="310" as="targetPoint" />
          </mxGeometry>
        </mxCell>
        <mxCell id="G6E1uZcaA4SNPLldOdaM-332" value="" style="endArrow=none;html=1;rounded=0;entryX=0.031;entryY=0.392;entryDx=0;entryDy=0;exitX=1;exitY=0.75;exitDx=0;exitDy=0;entryPerimeter=0;" edge="1" parent="1" source="G6E1uZcaA4SNPLldOdaM-326" target="G6E1uZcaA4SNPLldOdaM-322">
          <mxGeometry width="50" height="50" relative="1" as="geometry">
            <mxPoint x="2011" y="410" as="sourcePoint" />
            <mxPoint x="2120" y="370" as="targetPoint" />
          </mxGeometry>
        </mxCell>
        <mxCell id="G6E1uZcaA4SNPLldOdaM-333" value="" style="endArrow=none;html=1;rounded=0;entryX=0.031;entryY=0.315;entryDx=0;entryDy=0;exitX=1;exitY=1;exitDx=0;exitDy=0;entryPerimeter=0;" edge="1" parent="1" source="G6E1uZcaA4SNPLldOdaM-326" target="G6E1uZcaA4SNPLldOdaM-321">
          <mxGeometry width="50" height="50" relative="1" as="geometry">
            <mxPoint x="2010" y="425" as="sourcePoint" />
            <mxPoint x="2124" y="430" as="targetPoint" />
          </mxGeometry>
        </mxCell>
        <mxCell id="G6E1uZcaA4SNPLldOdaM-334" value="" style="endArrow=none;html=1;rounded=0;exitX=0.75;exitY=1;exitDx=0;exitDy=0;" edge="1" parent="1" source="G6E1uZcaA4SNPLldOdaM-326" target="G6E1uZcaA4SNPLldOdaM-319">
          <mxGeometry width="50" height="50" relative="1" as="geometry">
            <mxPoint x="2010" y="435" as="sourcePoint" />
            <mxPoint x="2104" y="486" as="targetPoint" />
          </mxGeometry>
        </mxCell>
        <mxCell id="G6E1uZcaA4SNPLldOdaM-335" value="" style="endArrow=none;html=1;rounded=0;exitX=0.415;exitY=1.043;exitDx=0;exitDy=0;exitPerimeter=0;entryX=0.56;entryY=0.002;entryDx=0;entryDy=0;entryPerimeter=0;" edge="1" parent="1" source="G6E1uZcaA4SNPLldOdaM-326" target="G6E1uZcaA4SNPLldOdaM-318">
          <mxGeometry width="50" height="50" relative="1" as="geometry">
            <mxPoint x="1985" y="435" as="sourcePoint" />
            <mxPoint x="2042" y="511" as="targetPoint" />
          </mxGeometry>
        </mxCell>
        <mxCell id="G6E1uZcaA4SNPLldOdaM-336" value="" style="endArrow=none;html=1;rounded=0;exitX=0.118;exitY=1.043;exitDx=0;exitDy=0;exitPerimeter=0;entryX=0.956;entryY=0.308;entryDx=0;entryDy=0;entryPerimeter=0;" edge="1" parent="1" source="G6E1uZcaA4SNPLldOdaM-326" target="G6E1uZcaA4SNPLldOdaM-317">
          <mxGeometry width="50" height="50" relative="1" as="geometry">
            <mxPoint x="1952" y="437" as="sourcePoint" />
            <mxPoint x="1937" y="505" as="targetPoint" />
          </mxGeometry>
        </mxCell>
        <mxCell id="G6E1uZcaA4SNPLldOdaM-337" value="" style="endArrow=none;html=1;rounded=0;exitX=1;exitY=0.5;exitDx=0;exitDy=0;entryX=0.015;entryY=0.881;entryDx=0;entryDy=0;entryPerimeter=0;" edge="1" parent="1" source="G6E1uZcaA4SNPLldOdaM-313" target="G6E1uZcaA4SNPLldOdaM-326">
          <mxGeometry width="50" height="50" relative="1" as="geometry">
            <mxPoint x="1962" y="447" as="sourcePoint" />
            <mxPoint x="1947" y="515" as="targetPoint" />
          </mxGeometry>
        </mxCell>
        <mxCell id="G6E1uZcaA4SNPLldOdaM-338" value="Generate&amp;nbsp;" style="rhombus;whiteSpace=wrap;html=1;" vertex="1" parent="1">
          <mxGeometry x="-540" y="32.5" width="110" height="75" as="geometry" />
        </mxCell>
        <mxCell id="G6E1uZcaA4SNPLldOdaM-339" value="" style="endArrow=none;html=1;rounded=0;entryX=0.5;entryY=1;entryDx=0;entryDy=0;exitX=0;exitY=0.5;exitDx=0;exitDy=0;" edge="1" parent="1" source="G6E1uZcaA4SNPLldOdaM-110" target="G6E1uZcaA4SNPLldOdaM-338">
          <mxGeometry width="50" height="50" relative="1" as="geometry">
            <mxPoint x="-165" y="-32" as="sourcePoint" />
            <mxPoint x="-260" y="-120" as="targetPoint" />
          </mxGeometry>
        </mxCell>
        <mxCell id="G6E1uZcaA4SNPLldOdaM-340" value="Reports" style="rounded=0;whiteSpace=wrap;html=1;" vertex="1" parent="1">
          <mxGeometry x="-690" y="-25" width="100" height="40" as="geometry" />
        </mxCell>
        <mxCell id="G6E1uZcaA4SNPLldOdaM-341" value="apply" style="rhombus;whiteSpace=wrap;html=1;" vertex="1" parent="1">
          <mxGeometry x="705" width="110" height="75" as="geometry" />
        </mxCell>
        <mxCell id="G6E1uZcaA4SNPLldOdaM-342" value="" style="endArrow=none;html=1;rounded=0;entryX=0.5;entryY=1;entryDx=0;entryDy=0;exitX=0.75;exitY=0;exitDx=0;exitDy=0;jumpStyle=arc;" edge="1" parent="1" source="G6E1uZcaA4SNPLldOdaM-9" target="G6E1uZcaA4SNPLldOdaM-341">
          <mxGeometry width="50" height="50" relative="1" as="geometry">
            <mxPoint x="835" y="660" as="sourcePoint" />
            <mxPoint x="650" y="370" as="targetPoint" />
          </mxGeometry>
        </mxCell>
        <mxCell id="G6E1uZcaA4SNPLldOdaM-343" value="refund" style="rounded=0;whiteSpace=wrap;html=1;" vertex="1" parent="1">
          <mxGeometry x="560" y="-280" width="100" height="40" as="geometry" />
        </mxCell>
        <mxCell id="G6E1uZcaA4SNPLldOdaM-344" value="" style="endArrow=none;html=1;rounded=0;entryX=0.75;entryY=1;entryDx=0;entryDy=0;exitX=0.5;exitY=0;exitDx=0;exitDy=0;jumpStyle=arc;" edge="1" parent="1" source="G6E1uZcaA4SNPLldOdaM-341" target="G6E1uZcaA4SNPLldOdaM-343">
          <mxGeometry width="50" height="50" relative="1" as="geometry">
            <mxPoint x="625" y="350" as="sourcePoint" />
            <mxPoint x="770" y="85" as="targetPoint" />
          </mxGeometry>
        </mxCell>
        <mxCell id="G6E1uZcaA4SNPLldOdaM-345" value="approve/cancel" style="rhombus;whiteSpace=wrap;html=1;" vertex="1" parent="1">
          <mxGeometry x="100" y="-272.5" width="110" height="75" as="geometry" />
        </mxCell>
        <mxCell id="G6E1uZcaA4SNPLldOdaM-346" value="" style="endArrow=none;html=1;rounded=0;entryX=1;entryY=0.25;entryDx=0;entryDy=0;exitX=0.5;exitY=1;exitDx=0;exitDy=0;jumpStyle=arc;" edge="1" parent="1" source="G6E1uZcaA4SNPLldOdaM-345" target="G6E1uZcaA4SNPLldOdaM-110">
          <mxGeometry width="50" height="50" relative="1" as="geometry">
            <mxPoint x="-30" y="145" as="sourcePoint" />
            <mxPoint x="-165" y="43" as="targetPoint" />
          </mxGeometry>
        </mxCell>
        <mxCell id="G6E1uZcaA4SNPLldOdaM-347" value="" style="endArrow=none;html=1;rounded=0;entryX=1;entryY=0.5;entryDx=0;entryDy=0;exitX=0;exitY=0.5;exitDx=0;exitDy=0;jumpStyle=arc;" edge="1" parent="1" source="G6E1uZcaA4SNPLldOdaM-343" target="G6E1uZcaA4SNPLldOdaM-345">
          <mxGeometry width="50" height="50" relative="1" as="geometry">
            <mxPoint x="770" y="10" as="sourcePoint" />
            <mxPoint x="645" y="-230" as="targetPoint" />
          </mxGeometry>
        </mxCell>
        <mxCell id="G6E1uZcaA4SNPLldOdaM-348" value="&lt;u&gt;refundId&lt;/u&gt;" style="ellipse;whiteSpace=wrap;html=1;" vertex="1" parent="1">
          <mxGeometry x="470" y="-380" width="120" height="50" as="geometry" />
        </mxCell>
        <mxCell id="G6E1uZcaA4SNPLldOdaM-349" value="" style="endArrow=none;html=1;rounded=0;exitX=0;exitY=0;exitDx=0;exitDy=0;jumpStyle=arc;" edge="1" parent="1" source="G6E1uZcaA4SNPLldOdaM-343" target="G6E1uZcaA4SNPLldOdaM-348">
          <mxGeometry width="50" height="50" relative="1" as="geometry">
            <mxPoint x="570" y="-250" as="sourcePoint" />
            <mxPoint x="220" y="-225" as="targetPoint" />
          </mxGeometry>
        </mxCell>
        <mxCell id="G6E1uZcaA4SNPLldOdaM-350" value="reason" style="ellipse;whiteSpace=wrap;html=1;" vertex="1" parent="1">
          <mxGeometry x="630" y="-370" width="120" height="50" as="geometry" />
        </mxCell>
        <mxCell id="G6E1uZcaA4SNPLldOdaM-351" value="amount" style="ellipse;whiteSpace=wrap;html=1;" vertex="1" parent="1">
          <mxGeometry x="695" y="-300" width="120" height="50" as="geometry" />
        </mxCell>
        <mxCell id="G6E1uZcaA4SNPLldOdaM-352" value="bookingID" style="ellipse;whiteSpace=wrap;html=1;" vertex="1" parent="1">
          <mxGeometry x="700" y="-230" width="120" height="50" as="geometry" />
        </mxCell>
        <mxCell id="G6E1uZcaA4SNPLldOdaM-353" value="" style="endArrow=none;html=1;rounded=0;exitX=0.322;exitY=-0.005;exitDx=0;exitDy=0;jumpStyle=arc;entryX=0.092;entryY=0.836;entryDx=0;entryDy=0;entryPerimeter=0;exitPerimeter=0;" edge="1" parent="1" source="G6E1uZcaA4SNPLldOdaM-343" target="G6E1uZcaA4SNPLldOdaM-350">
          <mxGeometry width="50" height="50" relative="1" as="geometry">
            <mxPoint x="570" y="-270" as="sourcePoint" />
            <mxPoint x="550" y="-320" as="targetPoint" />
          </mxGeometry>
        </mxCell>
        <mxCell id="G6E1uZcaA4SNPLldOdaM-354" value="" style="endArrow=none;html=1;rounded=0;exitX=1;exitY=0.5;exitDx=0;exitDy=0;jumpStyle=arc;entryX=0;entryY=0.5;entryDx=0;entryDy=0;" edge="1" parent="1" source="G6E1uZcaA4SNPLldOdaM-343" target="G6E1uZcaA4SNPLldOdaM-351">
          <mxGeometry width="50" height="50" relative="1" as="geometry">
            <mxPoint x="602" y="-270" as="sourcePoint" />
            <mxPoint x="651" y="-318" as="targetPoint" />
          </mxGeometry>
        </mxCell>
        <mxCell id="G6E1uZcaA4SNPLldOdaM-355" value="" style="endArrow=none;html=1;rounded=0;exitX=1;exitY=1;exitDx=0;exitDy=0;jumpStyle=arc;" edge="1" parent="1" source="G6E1uZcaA4SNPLldOdaM-343" target="G6E1uZcaA4SNPLldOdaM-352">
          <mxGeometry width="50" height="50" relative="1" as="geometry">
            <mxPoint x="670" y="-250" as="sourcePoint" />
            <mxPoint x="705" y="-265" as="targetPoint" />
          </mxGeometry>
        </mxCell>
        <mxCell id="G6E1uZcaA4SNPLldOdaM-356" value="Add" style="rhombus;whiteSpace=wrap;html=1;" vertex="1" parent="1">
          <mxGeometry x="1690" y="60" width="110" height="75" as="geometry" />
        </mxCell>
        <mxCell id="G6E1uZcaA4SNPLldOdaM-357" value="restaurant" style="rounded=0;whiteSpace=wrap;html=1;" vertex="1" parent="1">
          <mxGeometry x="1940" y="55" width="100" height="40" as="geometry" />
        </mxCell>
        <mxCell id="G6E1uZcaA4SNPLldOdaM-358" value="" style="endArrow=none;html=1;rounded=0;entryX=1;entryY=0.5;entryDx=0;entryDy=0;exitX=0;exitY=0.5;exitDx=0;exitDy=0;" edge="1" parent="1" source="G6E1uZcaA4SNPLldOdaM-356" target="G6E1uZcaA4SNPLldOdaM-142">
          <mxGeometry width="50" height="50" relative="1" as="geometry">
            <mxPoint x="1580" y="400" as="sourcePoint" />
            <mxPoint x="1520" y="305" as="targetPoint" />
          </mxGeometry>
        </mxCell>
        <mxCell id="G6E1uZcaA4SNPLldOdaM-359" value="" style="endArrow=none;html=1;rounded=0;entryX=1;entryY=0.5;entryDx=0;entryDy=0;exitX=0;exitY=0.5;exitDx=0;exitDy=0;" edge="1" parent="1" source="G6E1uZcaA4SNPLldOdaM-357" target="G6E1uZcaA4SNPLldOdaM-356">
          <mxGeometry width="50" height="50" relative="1" as="geometry">
            <mxPoint x="1700" y="108" as="sourcePoint" />
            <mxPoint x="1600" y="145" as="targetPoint" />
          </mxGeometry>
        </mxCell>
        <mxCell id="G6E1uZcaA4SNPLldOdaM-360" value="&lt;u&gt;resID&lt;/u&gt;" style="ellipse;whiteSpace=wrap;html=1;" vertex="1" parent="1">
          <mxGeometry x="1860" y="-92.5" width="120" height="50" as="geometry" />
        </mxCell>
        <mxCell id="G6E1uZcaA4SNPLldOdaM-361" value="userID" style="ellipse;whiteSpace=wrap;html=1;" vertex="1" parent="1">
          <mxGeometry x="2020" y="-70" width="120" height="50" as="geometry" />
        </mxCell>
        <mxCell id="G6E1uZcaA4SNPLldOdaM-362" value="img" style="ellipse;whiteSpace=wrap;html=1;" vertex="1" parent="1">
          <mxGeometry x="2100" y="10" width="120" height="50" as="geometry" />
        </mxCell>
        <mxCell id="G6E1uZcaA4SNPLldOdaM-363" value="description" style="ellipse;whiteSpace=wrap;html=1;" vertex="1" parent="1">
          <mxGeometry x="1740" y="-42.5" width="120" height="50" as="geometry" />
        </mxCell>
        <mxCell id="G6E1uZcaA4SNPLldOdaM-364" value="table no" style="ellipse;whiteSpace=wrap;html=1;" vertex="1" parent="1">
          <mxGeometry x="2110" y="120" width="120" height="50" as="geometry" />
        </mxCell>
        <mxCell id="G6E1uZcaA4SNPLldOdaM-365" value="location" style="ellipse;whiteSpace=wrap;html=1;" vertex="1" parent="1">
          <mxGeometry x="1910" y="165" width="120" height="50" as="geometry" />
        </mxCell>
        <mxCell id="G6E1uZcaA4SNPLldOdaM-366" value="" style="endArrow=none;html=1;rounded=0;entryX=1;entryY=1;entryDx=0;entryDy=0;exitX=0;exitY=0;exitDx=0;exitDy=0;" edge="1" parent="1" source="G6E1uZcaA4SNPLldOdaM-357" target="G6E1uZcaA4SNPLldOdaM-363">
          <mxGeometry width="50" height="50" relative="1" as="geometry">
            <mxPoint x="1980" y="390" as="sourcePoint" />
            <mxPoint x="2027" y="302" as="targetPoint" />
          </mxGeometry>
        </mxCell>
        <mxCell id="G6E1uZcaA4SNPLldOdaM-367" value="" style="endArrow=none;html=1;rounded=0;entryX=0.5;entryY=1;entryDx=0;entryDy=0;exitX=0.25;exitY=0;exitDx=0;exitDy=0;" edge="1" parent="1" source="G6E1uZcaA4SNPLldOdaM-357" target="G6E1uZcaA4SNPLldOdaM-360">
          <mxGeometry width="50" height="50" relative="1" as="geometry">
            <mxPoint x="1950" y="65" as="sourcePoint" />
            <mxPoint x="1853" y="10" as="targetPoint" />
          </mxGeometry>
        </mxCell>
        <mxCell id="G6E1uZcaA4SNPLldOdaM-368" value="" style="endArrow=none;html=1;rounded=0;entryX=0;entryY=1;entryDx=0;entryDy=0;exitX=0.5;exitY=0;exitDx=0;exitDy=0;" edge="1" parent="1" source="G6E1uZcaA4SNPLldOdaM-357" target="G6E1uZcaA4SNPLldOdaM-361">
          <mxGeometry width="50" height="50" relative="1" as="geometry">
            <mxPoint x="1975" y="65" as="sourcePoint" />
            <mxPoint x="1930" y="-32" as="targetPoint" />
          </mxGeometry>
        </mxCell>
        <mxCell id="G6E1uZcaA4SNPLldOdaM-369" value="" style="endArrow=none;html=1;rounded=0;entryX=0;entryY=0.5;entryDx=0;entryDy=0;exitX=1;exitY=0;exitDx=0;exitDy=0;" edge="1" parent="1" source="G6E1uZcaA4SNPLldOdaM-357" target="G6E1uZcaA4SNPLldOdaM-362">
          <mxGeometry width="50" height="50" relative="1" as="geometry">
            <mxPoint x="2000" y="65" as="sourcePoint" />
            <mxPoint x="2047" y="-18" as="targetPoint" />
          </mxGeometry>
        </mxCell>
        <mxCell id="G6E1uZcaA4SNPLldOdaM-370" value="" style="endArrow=none;html=1;rounded=0;exitX=1;exitY=1;exitDx=0;exitDy=0;" edge="1" parent="1" source="G6E1uZcaA4SNPLldOdaM-357" target="G6E1uZcaA4SNPLldOdaM-364">
          <mxGeometry width="50" height="50" relative="1" as="geometry">
            <mxPoint x="2050" y="65" as="sourcePoint" />
            <mxPoint x="2110" y="45" as="targetPoint" />
          </mxGeometry>
        </mxCell>
        <mxCell id="G6E1uZcaA4SNPLldOdaM-371" value="Add" style="rhombus;whiteSpace=wrap;html=1;" vertex="1" parent="1">
          <mxGeometry x="1380" y="-135" width="110" height="75" as="geometry" />
        </mxCell>
        <mxCell id="G6E1uZcaA4SNPLldOdaM-372" value="Hotels" style="rounded=0;whiteSpace=wrap;html=1;" vertex="1" parent="1">
          <mxGeometry x="1550" y="-270" width="110" height="50" as="geometry" />
        </mxCell>
        <mxCell id="G6E1uZcaA4SNPLldOdaM-373" value="" style="endArrow=none;html=1;rounded=0;entryX=1;entryY=0;entryDx=0;entryDy=0;exitX=0.5;exitY=1;exitDx=0;exitDy=0;" edge="1" parent="1" source="G6E1uZcaA4SNPLldOdaM-371" target="G6E1uZcaA4SNPLldOdaM-179">
          <mxGeometry width="50" height="50" relative="1" as="geometry">
            <mxPoint x="1700" y="108" as="sourcePoint" />
            <mxPoint x="1600" y="145" as="targetPoint" />
          </mxGeometry>
        </mxCell>
        <mxCell id="G6E1uZcaA4SNPLldOdaM-374" value="" style="endArrow=none;html=1;rounded=0;entryX=0.5;entryY=0;entryDx=0;entryDy=0;exitX=0;exitY=1;exitDx=0;exitDy=0;" edge="1" parent="1" source="G6E1uZcaA4SNPLldOdaM-372" target="G6E1uZcaA4SNPLldOdaM-371">
          <mxGeometry width="50" height="50" relative="1" as="geometry">
            <mxPoint x="1445" y="-50" as="sourcePoint" />
            <mxPoint x="1395" y="10" as="targetPoint" />
          </mxGeometry>
        </mxCell>
        <mxCell id="G6E1uZcaA4SNPLldOdaM-375" value="name" style="ellipse;whiteSpace=wrap;html=1;" vertex="1" parent="1">
          <mxGeometry x="1430" y="-390" width="120" height="50" as="geometry" />
        </mxCell>
        <mxCell id="G6E1uZcaA4SNPLldOdaM-376" value="&lt;u&gt;hotelID&lt;/u&gt;" style="ellipse;whiteSpace=wrap;html=1;" vertex="1" parent="1">
          <mxGeometry x="1600" y="-420" width="120" height="50" as="geometry" />
        </mxCell>
        <mxCell id="G6E1uZcaA4SNPLldOdaM-377" value="title" style="ellipse;whiteSpace=wrap;html=1;" vertex="1" parent="1">
          <mxGeometry x="1740" y="-400" width="120" height="50" as="geometry" />
        </mxCell>
        <mxCell id="G6E1uZcaA4SNPLldOdaM-378" value="type" style="ellipse;whiteSpace=wrap;html=1;" vertex="1" parent="1">
          <mxGeometry x="1790" y="-247.5" width="120" height="50" as="geometry" />
        </mxCell>
        <mxCell id="G6E1uZcaA4SNPLldOdaM-379" value="address" style="ellipse;whiteSpace=wrap;html=1;" vertex="1" parent="1">
          <mxGeometry x="1370" y="-310" width="120" height="50" as="geometry" />
        </mxCell>
        <mxCell id="G6E1uZcaA4SNPLldOdaM-380" value="distance" style="ellipse;whiteSpace=wrap;html=1;" vertex="1" parent="1">
          <mxGeometry x="1690" y="-197.5" width="120" height="50" as="geometry" />
        </mxCell>
        <mxCell id="G6E1uZcaA4SNPLldOdaM-381" value="city" style="ellipse;whiteSpace=wrap;html=1;" vertex="1" parent="1">
          <mxGeometry x="1140" y="-330" width="120" height="50" as="geometry" />
        </mxCell>
        <mxCell id="G6E1uZcaA4SNPLldOdaM-382" value="province" style="ellipse;whiteSpace=wrap;html=1;" vertex="1" parent="1">
          <mxGeometry x="1205" y="-400" width="120" height="50" as="geometry" />
        </mxCell>
        <mxCell id="G6E1uZcaA4SNPLldOdaM-383" value="postalcode" style="ellipse;whiteSpace=wrap;html=1;" vertex="1" parent="1">
          <mxGeometry x="1230" y="-247.5" width="120" height="50" as="geometry" />
        </mxCell>
        <mxCell id="G6E1uZcaA4SNPLldOdaM-384" value="" style="endArrow=none;html=1;rounded=0;entryX=0;entryY=0;entryDx=0;entryDy=0;exitX=1;exitY=1;exitDx=0;exitDy=0;" edge="1" parent="1" source="G6E1uZcaA4SNPLldOdaM-382" target="G6E1uZcaA4SNPLldOdaM-379">
          <mxGeometry width="50" height="50" relative="1" as="geometry">
            <mxPoint x="1560" y="-210" as="sourcePoint" />
            <mxPoint x="1445" y="-125" as="targetPoint" />
          </mxGeometry>
        </mxCell>
        <mxCell id="G6E1uZcaA4SNPLldOdaM-385" value="" style="endArrow=none;html=1;rounded=0;entryX=0;entryY=0.5;entryDx=0;entryDy=0;exitX=1.021;exitY=0.36;exitDx=0;exitDy=0;exitPerimeter=0;" edge="1" parent="1" source="G6E1uZcaA4SNPLldOdaM-381" target="G6E1uZcaA4SNPLldOdaM-379">
          <mxGeometry width="50" height="50" relative="1" as="geometry">
            <mxPoint x="1318" y="-348" as="sourcePoint" />
            <mxPoint x="1397" y="-292" as="targetPoint" />
          </mxGeometry>
        </mxCell>
        <mxCell id="G6E1uZcaA4SNPLldOdaM-386" value="" style="endArrow=none;html=1;rounded=0;entryX=0;entryY=1;entryDx=0;entryDy=0;exitX=0.5;exitY=0;exitDx=0;exitDy=0;" edge="1" parent="1" source="G6E1uZcaA4SNPLldOdaM-383" target="G6E1uZcaA4SNPLldOdaM-379">
          <mxGeometry width="50" height="50" relative="1" as="geometry">
            <mxPoint x="1273" y="-302" as="sourcePoint" />
            <mxPoint x="1380" y="-275" as="targetPoint" />
          </mxGeometry>
        </mxCell>
        <mxCell id="G6E1uZcaA4SNPLldOdaM-388" value="" style="endArrow=none;html=1;rounded=0;entryX=0;entryY=0.25;entryDx=0;entryDy=0;exitX=0.956;exitY=0.782;exitDx=0;exitDy=0;exitPerimeter=0;" edge="1" parent="1" source="G6E1uZcaA4SNPLldOdaM-379" target="G6E1uZcaA4SNPLldOdaM-372">
          <mxGeometry width="50" height="50" relative="1" as="geometry">
            <mxPoint x="1300" y="-237" as="sourcePoint" />
            <mxPoint x="1397" y="-258" as="targetPoint" />
          </mxGeometry>
        </mxCell>
        <mxCell id="G6E1uZcaA4SNPLldOdaM-389" value="" style="endArrow=none;html=1;rounded=0;entryX=0.084;entryY=0.027;entryDx=0;entryDy=0;exitX=0.734;exitY=0.96;exitDx=0;exitDy=0;exitPerimeter=0;entryPerimeter=0;" edge="1" parent="1" source="G6E1uZcaA4SNPLldOdaM-375" target="G6E1uZcaA4SNPLldOdaM-372">
          <mxGeometry width="50" height="50" relative="1" as="geometry">
            <mxPoint x="1495" y="-261" as="sourcePoint" />
            <mxPoint x="1560" y="-247" as="targetPoint" />
          </mxGeometry>
        </mxCell>
        <mxCell id="G6E1uZcaA4SNPLldOdaM-390" value="" style="endArrow=none;html=1;rounded=0;entryX=0.397;entryY=-0.04;entryDx=0;entryDy=0;exitX=0.29;exitY=0.938;exitDx=0;exitDy=0;exitPerimeter=0;entryPerimeter=0;" edge="1" parent="1" source="G6E1uZcaA4SNPLldOdaM-376" target="G6E1uZcaA4SNPLldOdaM-372">
          <mxGeometry width="50" height="50" relative="1" as="geometry">
            <mxPoint x="1528" y="-332" as="sourcePoint" />
            <mxPoint x="1569" y="-259" as="targetPoint" />
          </mxGeometry>
        </mxCell>
        <mxCell id="G6E1uZcaA4SNPLldOdaM-391" value="" style="endArrow=none;html=1;rounded=0;entryX=0.75;entryY=0;entryDx=0;entryDy=0;exitX=0;exitY=0.5;exitDx=0;exitDy=0;" edge="1" parent="1" source="G6E1uZcaA4SNPLldOdaM-377" target="G6E1uZcaA4SNPLldOdaM-372">
          <mxGeometry width="50" height="50" relative="1" as="geometry">
            <mxPoint x="1645" y="-363" as="sourcePoint" />
            <mxPoint x="1604" y="-262" as="targetPoint" />
          </mxGeometry>
        </mxCell>
        <mxCell id="G6E1uZcaA4SNPLldOdaM-392" value="contact details" style="ellipse;whiteSpace=wrap;html=1;" vertex="1" parent="1">
          <mxGeometry x="1880" y="-320" width="120" height="50" as="geometry" />
        </mxCell>
        <mxCell id="G6E1uZcaA4SNPLldOdaM-393" value="" style="endArrow=none;html=1;rounded=0;entryX=0.831;entryY=1.071;entryDx=0;entryDy=0;entryPerimeter=0;" edge="1" parent="1" source="G6E1uZcaA4SNPLldOdaM-380" target="G6E1uZcaA4SNPLldOdaM-372">
          <mxGeometry width="50" height="50" relative="1" as="geometry">
            <mxPoint x="1730" y="-315" as="sourcePoint" />
            <mxPoint x="1643" y="-260" as="targetPoint" />
          </mxGeometry>
        </mxCell>
        <mxCell id="G6E1uZcaA4SNPLldOdaM-394" value="" style="endArrow=none;html=1;rounded=0;entryX=1;entryY=0.75;entryDx=0;entryDy=0;exitX=0;exitY=0.5;exitDx=0;exitDy=0;" edge="1" parent="1" source="G6E1uZcaA4SNPLldOdaM-378" target="G6E1uZcaA4SNPLldOdaM-372">
          <mxGeometry width="50" height="50" relative="1" as="geometry">
            <mxPoint x="1717" y="-180" as="sourcePoint" />
            <mxPoint x="1651" y="-206" as="targetPoint" />
          </mxGeometry>
        </mxCell>
        <mxCell id="G6E1uZcaA4SNPLldOdaM-395" value="" style="endArrow=none;html=1;rounded=0;entryX=1;entryY=0.5;entryDx=0;entryDy=0;exitX=0;exitY=0.5;exitDx=0;exitDy=0;" edge="1" parent="1" source="G6E1uZcaA4SNPLldOdaM-392" target="G6E1uZcaA4SNPLldOdaM-372">
          <mxGeometry width="50" height="50" relative="1" as="geometry">
            <mxPoint x="1800" y="-212" as="sourcePoint" />
            <mxPoint x="1670" y="-222" as="targetPoint" />
          </mxGeometry>
        </mxCell>
        <mxCell id="G6E1uZcaA4SNPLldOdaM-398" value="images" style="ellipse;shape=doubleEllipse;margin=3;whiteSpace=wrap;html=1;align=center;" vertex="1" parent="1">
          <mxGeometry x="1900" y="-385" width="100" height="40" as="geometry" />
        </mxCell>
        <mxCell id="G6E1uZcaA4SNPLldOdaM-399" value="" style="endArrow=none;html=1;rounded=0;entryX=1;entryY=0.25;entryDx=0;entryDy=0;exitX=0;exitY=0.5;exitDx=0;exitDy=0;" edge="1" parent="1" source="G6E1uZcaA4SNPLldOdaM-398" target="G6E1uZcaA4SNPLldOdaM-372">
          <mxGeometry width="50" height="50" relative="1" as="geometry">
            <mxPoint x="1750" y="-365" as="sourcePoint" />
            <mxPoint x="1643" y="-260" as="targetPoint" />
          </mxGeometry>
        </mxCell>
      </root>
    </mxGraphModel>
  </diagram>
</mxfile>
